<svg width="14" height="14" viewBox="0 0 14 14" fill="none" xmlns="http://www.w3.org/2000/svg">
<path d="M11.1562 1.67714C10.8158 1.33692 10.4026 1.16676 9.91645 1.16676C9.43049 1.16676 9.01729 1.33682 8.67697 1.67714C8.33678 2.01737 8.16668 2.43051 8.16668 2.91672C8.16668 3.23268 8.24544 3.52588 8.40344 3.79626C8.5614 4.06666 8.77389 4.27787 9.04146 4.42971C9.04146 4.74567 9.01576 5.02377 8.9642 5.26375C8.91242 5.50373 8.82743 5.71478 8.70899 5.8972C8.59023 6.07952 8.46745 6.23436 8.33975 6.36203C8.21201 6.4897 8.03276 6.60961 7.80188 6.72208C7.57103 6.83449 7.35668 6.92857 7.15926 7.00465C6.96183 7.08047 6.6959 7.17008 6.36171 7.27342C5.75399 7.46187 5.28619 7.63491 4.95803 7.793V3.26292C5.22541 3.11111 5.43809 2.89993 5.59605 2.62953C5.75399 2.35912 5.83297 2.06589 5.83297 1.74993C5.83297 1.26388 5.6629 0.850639 5.32259 0.510416C4.98239 0.170224 4.56925 0 4.08307 0C3.59685 0 3.18371 0.170096 2.84339 0.510416C2.5032 0.850639 2.33301 1.26388 2.33301 1.74993C2.33301 2.06589 2.41199 2.35912 2.56992 2.62953C2.72789 2.89993 2.94054 3.11111 3.20794 3.26292V10.7371C2.94054 10.8888 2.72789 11.1002 2.56992 11.3705C2.41199 11.641 2.33301 11.9343 2.33301 12.2501C2.33301 12.7362 2.50307 13.1494 2.84339 13.4896C3.18371 13.8298 3.59695 14 4.08307 14C4.56916 14 4.98239 13.8298 5.32259 13.4896C5.66281 13.1494 5.83297 12.7362 5.83297 12.2501C5.83297 11.9343 5.75399 11.641 5.59605 11.3705C5.43806 11.1002 5.22541 10.8888 4.95803 10.7371V10.5001C4.95803 10.0809 5.08411 9.77716 5.33625 9.58884C5.58839 9.40026 6.10337 9.18461 6.88126 8.94163C7.70169 8.68029 8.31855 8.43405 8.73172 8.20308C10.0928 7.43155 10.7794 6.17367 10.7915 4.42968C11.0591 4.27787 11.2716 4.06663 11.4296 3.79622C11.5874 3.52582 11.6665 3.23265 11.6665 2.91669C11.6666 2.4306 11.4965 2.01746 11.1562 1.67714ZM4.70299 12.8701C4.53276 13.0403 4.32618 13.1254 4.0832 13.1254C3.84006 13.1254 3.63347 13.0403 3.46331 12.8701C3.29325 12.7001 3.2081 12.4934 3.2081 12.2505C3.2081 12.0073 3.29315 11.8008 3.46331 11.6306C3.63347 11.4605 3.84006 11.3754 4.0832 11.3754C4.32618 11.3754 4.53279 11.4606 4.70299 11.6306C4.87315 11.8008 4.95816 12.0073 4.95816 12.2505C4.95813 12.4934 4.87315 12.7001 4.70299 12.8701ZM4.70299 2.36985C4.53276 2.54001 4.32618 2.62506 4.0832 2.62506C3.84006 2.62506 3.63347 2.54001 3.46331 2.36985C3.29325 2.19969 3.2081 1.9932 3.2081 1.75006C3.2081 1.50698 3.29315 1.30033 3.46331 1.13033C3.63347 0.960206 3.84006 0.875126 4.0832 0.875126C4.32618 0.875126 4.53279 0.960238 4.70299 1.13033C4.87315 1.30033 4.95816 1.50698 4.95816 1.75006C4.95813 1.9932 4.87315 2.19979 4.70299 2.36985ZM10.5363 3.53661C10.3662 3.70667 10.1598 3.79179 9.91668 3.79179C9.67347 3.79179 9.46686 3.70667 9.29689 3.53661C9.12679 3.36655 9.04168 3.15993 9.04168 2.91682C9.04168 2.67374 9.12679 2.46722 9.29689 2.29703C9.46698 2.12684 9.67347 2.04185 9.91668 2.04185C10.1598 2.04185 10.3662 2.12687 10.5363 2.29703C10.7064 2.46706 10.7915 2.67371 10.7915 2.91682C10.7915 3.1599 10.7066 3.36655 10.5363 3.53661Z" fill="black"/>
</svg>
