<svg width="261" height="198" viewBox="0 0 261 198" fill="none" xmlns="http://www.w3.org/2000/svg">
<g clip-path="url(#clip0)">
<path opacity="0.1" d="M245.388 107.479C236.213 120.079 239.241 138.065 244.545 152.394C246.321 157.191 248.339 162.264 247.418 167.483C246.293 173.863 241.006 178.644 235.51 181.247C225.49 185.992 213.654 185.235 204.692 179.256C196.958 174.096 191.513 165.52 183.629 160.606C170.434 152.385 153.303 156.058 138.618 162.335C128.228 166.775 116.847 172.494 106.722 168.393C99.5968 165.508 94.7992 158.164 92.275 150.314C91.0562 146.523 90.2031 142.409 87.775 139.442C86.3313 137.678 84.4235 136.449 82.4618 135.422C64.558 126.039 41.5285 131.903 24.1709 121.435C12.4522 114.365 5.15854 100.646 2.1281 86.223C-0.902342 71.8 -0.152348 56.5749 1.05467 41.6101C1.91248 30.9752 3.2695 19.6108 9.6585 11.2535C16.4155 2.41771 27.7404 -1.09363 37.8676 0.290268C47.9949 1.67416 57.0745 7.30356 65.0174 14.0237C74.9525 22.4068 84.093 32.9314 96.4491 36.1144C104.865 38.2817 113.807 36.7477 122.556 36.0698C137.181 34.9392 151.754 36.241 166.238 37.7117C180.104 39.119 194.065 40.6906 207.197 45.3043C216.49 48.5694 223.857 54.7406 232.606 58.958C238.308 61.707 244.582 62.345 249.949 65.8962C256.573 70.2707 262.559 78.0205 260.616 87.3208C258.78 96.1613 250.263 100.791 245.388 107.479Z" fill="#006DCC"/>
<g opacity="0.5">
<path opacity="0.5" d="M200.388 164.95C200.388 164.95 201.161 142.02 213.557 129.063C218.76 123.626 222.177 116.72 223.082 109.247C223.505 105.701 223.602 102.123 223.373 98.5586" stroke="#535461" stroke-width="2" stroke-miterlimit="10"/>
<path opacity="0.5" d="M231.137 90.352C230.289 92.9133 223.197 98.7961 223.197 98.7961C223.197 98.7961 221.024 89.8336 221.872 87.2746C222.074 86.6657 222.394 86.1027 222.813 85.6175C223.232 85.1323 223.743 84.7344 224.316 84.4467C224.888 84.159 225.512 83.987 226.151 83.9406C226.791 83.8941 227.433 83.9741 228.041 84.176C228.649 84.378 229.212 84.6978 229.697 85.1173C230.182 85.5368 230.579 86.0478 230.867 86.6211C231.154 87.1944 231.326 87.8187 231.372 88.4584C231.419 89.0982 231.339 89.7408 231.137 90.3496V90.352Z" fill="#006DCC"/>
<path opacity="0.5" d="M234.092 107.076C231.982 108.765 222.842 109.849 222.842 109.849C222.842 109.849 225.889 101.144 227.998 99.4577C228.494 99.0256 229.072 98.6983 229.698 98.4954C230.324 98.2926 230.984 98.2185 231.639 98.2775C232.294 98.3365 232.931 98.5274 233.51 98.8388C234.09 99.1502 234.6 99.5756 235.011 100.089C235.422 100.603 235.725 101.195 235.902 101.829C236.079 102.463 236.125 103.126 236.04 103.779C235.954 104.432 235.737 105.06 235.402 105.627C235.067 106.193 234.622 106.686 234.092 107.076Z" fill="#006DCC"/>
<path opacity="0.5" d="M225.731 131.198C223.064 131.592 214.619 127.914 214.619 127.914C214.619 127.914 221.636 121.938 224.303 121.544C224.937 121.45 225.584 121.482 226.205 121.638C226.827 121.794 227.412 122.072 227.926 122.454C228.441 122.836 228.875 123.316 229.205 123.867C229.534 124.417 229.751 125.027 229.845 125.661C229.939 126.296 229.907 126.943 229.751 127.565C229.595 128.187 229.318 128.772 228.936 129.287C228.554 129.802 228.074 130.237 227.524 130.566C226.974 130.896 226.365 131.114 225.731 131.208V131.198Z" fill="#006DCC"/>
<path opacity="0.5" d="M215.294 148.026C212.732 148.865 203.786 146.66 203.786 146.66C203.786 146.66 209.695 139.584 212.256 138.744C213.486 138.34 214.826 138.441 215.981 139.025C217.137 139.61 218.013 140.629 218.417 141.86C218.821 143.091 218.72 144.432 218.136 145.588C217.552 146.744 216.533 147.621 215.303 148.026H215.294Z" fill="#006DCC"/>
<path opacity="0.5" d="M212.95 107.116C214.194 109.508 222.139 114.192 222.139 114.192C222.139 114.192 222.861 105 221.617 102.605C221.321 102.036 220.916 101.531 220.425 101.119C219.935 100.706 219.367 100.395 218.756 100.202C218.145 100.009 217.502 99.9383 216.864 99.9941C216.225 100.05 215.604 100.231 215.036 100.527C214.467 100.823 213.963 101.228 213.55 101.719C213.138 102.21 212.827 102.778 212.634 103.39C212.442 104.001 212.371 104.645 212.427 105.284C212.482 105.923 212.663 106.544 212.959 107.113L212.95 107.116Z" fill="#006DCC"/>
<path opacity="0.5" d="M200.994 126.948C202.897 128.86 211.869 130.952 211.869 130.952C211.869 130.952 209.809 121.964 207.908 120.052C206.995 119.135 205.754 118.618 204.46 118.615C203.166 118.613 201.924 119.125 201.007 120.039C200.09 120.953 199.574 122.195 199.571 123.49C199.569 124.785 200.081 126.028 200.994 126.946V126.948Z" fill="#006DCC"/>
<path opacity="0.5" d="M192.018 147.821C193.569 150.026 202.061 153.607 202.061 153.607C202.061 153.607 201.55 144.401 199.996 142.194C199.636 141.646 199.171 141.177 198.626 140.814C198.082 140.451 197.47 140.2 196.827 140.079C196.184 139.957 195.523 139.965 194.884 140.104C194.244 140.243 193.639 140.509 193.105 140.887C192.57 141.265 192.117 141.746 191.772 142.303C191.427 142.859 191.198 143.479 191.097 144.126C190.996 144.774 191.027 145.434 191.187 146.069C191.347 146.704 191.632 147.301 192.027 147.823L192.018 147.821Z" fill="#006DCC"/>
<path opacity="0.5" d="M203.111 155.46C203.111 155.46 196.08 145.224 197.312 135.593C197.856 131.557 197.076 127.453 195.091 123.898C194.135 122.218 193.027 120.628 191.781 119.15" stroke="#535461" stroke-width="2" stroke-miterlimit="10"/>
<path opacity="0.5" d="M192.524 113.076C192.977 114.464 191.781 119.31 191.781 119.31C191.781 119.31 187.954 116.106 187.502 114.72C187.284 114.053 187.34 113.327 187.657 112.702C187.974 112.077 188.527 111.603 189.193 111.386C189.859 111.168 190.584 111.224 191.209 111.541C191.833 111.859 192.307 112.411 192.524 113.078V113.076Z" fill="#006DCC"/>
<path opacity="0.5" d="M199.187 119.406C198.815 120.814 195.177 124.236 195.177 124.236C195.177 124.236 193.705 119.465 194.078 118.053C194.257 117.375 194.699 116.796 195.304 116.443C195.91 116.091 196.631 115.994 197.309 116.173C197.986 116.352 198.565 116.794 198.917 117.4C199.27 118.007 199.367 118.728 199.187 119.406Z" fill="#006DCC"/>
<path opacity="0.5" d="M203.298 132.603C202.265 133.633 197.401 134.747 197.401 134.747C197.401 134.747 198.536 129.885 199.572 128.855C199.818 128.61 200.11 128.416 200.431 128.284C200.752 128.152 201.096 128.085 201.443 128.086C201.79 128.087 202.134 128.157 202.454 128.291C202.774 128.424 203.065 128.62 203.31 128.867C203.555 129.113 203.748 129.405 203.88 129.727C204.012 130.048 204.079 130.392 204.078 130.74C204.077 131.087 204.008 131.431 203.874 131.751C203.74 132.072 203.544 132.363 203.298 132.608V132.603Z" fill="#006DCC"/>
<path opacity="0.5" d="M204.163 143.292C203.317 144.481 198.702 146.398 198.702 146.398C198.702 146.398 199 141.413 199.846 140.224C200.047 139.941 200.302 139.7 200.596 139.516C200.889 139.331 201.217 139.206 201.559 139.148C201.901 139.09 202.251 139.101 202.589 139.178C202.928 139.256 203.247 139.399 203.53 139.6C203.813 139.801 204.054 140.056 204.238 140.35C204.422 140.644 204.547 140.972 204.605 141.314C204.663 141.657 204.653 142.007 204.575 142.346C204.498 142.684 204.355 143.004 204.154 143.287L204.163 143.292Z" fill="#006DCC"/>
<path opacity="0.5" d="M189.993 126.225C191.303 126.868 196.265 126.352 196.265 126.352C196.265 126.352 193.623 122.116 192.313 121.476C191.684 121.168 190.958 121.123 190.296 121.35C189.633 121.578 189.088 122.06 188.78 122.689C188.472 123.319 188.427 124.046 188.655 124.709C188.882 125.372 189.364 125.918 189.993 126.225Z" fill="#006DCC"/>
<path opacity="0.5" d="M191.163 138.716C192.607 138.936 197.186 136.959 197.186 136.959C197.186 136.959 193.399 133.708 191.957 133.497C191.265 133.391 190.558 133.566 189.994 133.981C189.43 134.397 189.053 135.02 188.948 135.713C188.843 136.407 189.017 137.114 189.432 137.678C189.848 138.243 190.47 138.62 191.163 138.725V138.716Z" fill="#006DCC"/>
<path opacity="0.5" d="M193.961 150.694C195.346 151.163 200.195 149.99 200.195 149.99C200.195 149.99 197.012 146.146 195.627 145.684C194.962 145.463 194.236 145.515 193.61 145.829C192.983 146.143 192.507 146.694 192.286 147.36C192.065 148.025 192.117 148.751 192.432 149.379C192.746 150.006 193.296 150.482 193.961 150.703V150.694Z" fill="#006DCC"/>
<path opacity="0.5" d="M192.524 113.076C192.977 114.464 191.781 119.31 191.781 119.31C191.781 119.31 187.954 116.106 187.502 114.72C187.284 114.053 187.34 113.327 187.657 112.702C187.974 112.077 188.527 111.603 189.193 111.386C189.859 111.168 190.584 111.224 191.209 111.541C191.833 111.859 192.307 112.411 192.524 113.078V113.076Z" fill="white"/>
<path opacity="0.5" d="M199.187 119.406C198.815 120.814 195.177 124.236 195.177 124.236C195.177 124.236 193.705 119.465 194.078 118.053C194.257 117.375 194.699 116.796 195.304 116.443C195.91 116.091 196.631 115.994 197.309 116.173C197.986 116.352 198.565 116.794 198.917 117.4C199.27 118.007 199.367 118.728 199.187 119.406Z" fill="white"/>
<path opacity="0.5" d="M203.298 132.603C202.265 133.633 197.401 134.747 197.401 134.747C197.401 134.747 198.536 129.885 199.572 128.855C199.818 128.61 200.11 128.416 200.431 128.284C200.752 128.152 201.096 128.085 201.443 128.086C201.79 128.087 202.134 128.157 202.454 128.291C202.774 128.424 203.065 128.62 203.31 128.867C203.555 129.113 203.748 129.405 203.88 129.727C204.012 130.048 204.079 130.392 204.078 130.74C204.077 131.087 204.008 131.431 203.874 131.751C203.74 132.072 203.544 132.363 203.298 132.608V132.603Z" fill="white"/>
<path opacity="0.5" d="M204.163 143.292C203.317 144.481 198.702 146.398 198.702 146.398C198.702 146.398 199 141.413 199.846 140.224C200.047 139.941 200.302 139.7 200.596 139.516C200.889 139.331 201.217 139.206 201.559 139.148C201.901 139.09 202.251 139.101 202.589 139.178C202.928 139.256 203.247 139.399 203.53 139.6C203.813 139.801 204.054 140.056 204.238 140.35C204.422 140.644 204.547 140.972 204.605 141.314C204.663 141.657 204.653 142.007 204.575 142.346C204.498 142.684 204.355 143.004 204.154 143.287L204.163 143.292Z" fill="white"/>
<path opacity="0.5" d="M189.993 126.225C191.303 126.868 196.265 126.352 196.265 126.352C196.265 126.352 193.623 122.116 192.313 121.476C191.684 121.168 190.958 121.123 190.296 121.35C189.633 121.578 189.088 122.06 188.78 122.689C188.472 123.319 188.427 124.046 188.655 124.709C188.882 125.372 189.364 125.918 189.993 126.225Z" fill="white"/>
<path opacity="0.5" d="M191.163 138.716C192.607 138.936 197.186 136.959 197.186 136.959C197.186 136.959 193.399 133.708 191.957 133.497C191.265 133.391 190.558 133.566 189.994 133.981C189.43 134.397 189.053 135.02 188.948 135.713C188.843 136.407 189.017 137.114 189.432 137.678C189.848 138.243 190.47 138.62 191.163 138.725V138.716Z" fill="white"/>
<path opacity="0.5" d="M193.961 150.694C195.346 151.163 200.195 149.99 200.195 149.99C200.195 149.99 197.012 146.146 195.627 145.684C194.962 145.463 194.236 145.515 193.61 145.829C192.983 146.143 192.507 146.694 192.286 147.36C192.065 148.025 192.117 148.751 192.432 149.379C192.746 150.006 193.296 150.482 193.961 150.703V150.694Z" fill="white"/>
<path opacity="0.5" d="M190.101 183.215H210.1L215.101 152.692H185.102L190.101 183.215Z" fill="#474059"/>
<path opacity="0.1" d="M188.929 152.692L193.6 181.215H210.428L210.1 183.215H190.101L185.102 152.692H188.929Z" fill="black"/>
</g>
<path d="M193.892 9.21582H47.1748V186.378H193.892V9.21582Z" fill="url(#paint0_linear)"/>
<path d="M192.017 11.4814H49.0498V184.116H192.017V11.4814Z" fill="white"/>
<path d="M162.251 30.9502H104.596V33.7649H162.251V30.9502Z" fill="#C0BCCF"/>
<path d="M162.251 39.8633H104.596V42.678H162.251V39.8633Z" fill="#C0BCCF"/>
<path d="M148.424 48.7764H118.424V51.5911H148.424V48.7764Z" fill="#006DCC"/>
<path opacity="0.5" d="M162.251 87.4785H104.596V90.2932H162.251V87.4785Z" fill="#C0BCCF"/>
<path opacity="0.5" d="M162.251 96.3916H104.596V99.2063H162.251V96.3916Z" fill="#C0BCCF"/>
<path opacity="0.5" d="M148.424 105.305H118.424V108.119H148.424V105.305Z" fill="#006DCC"/>
<path opacity="0.5" d="M162.251 144.007H104.596V146.822H162.251V144.007Z" fill="#C0BCCF"/>
<path opacity="0.5" d="M162.251 152.92H104.596V155.735H162.251V152.92Z" fill="#C0BCCF"/>
<path opacity="0.5" d="M148.424 161.833H118.424V164.648H148.424V161.833Z" fill="#006DCC"/>
<g opacity="0.5">
<path opacity="0.5" d="M84.2973 103.178L83.0879 102.634C83.1063 102.45 83.1142 102.265 83.1113 102.08C83.1198 101.924 83.1198 101.767 83.1113 101.611C82.9918 100.377 82.2066 99.303 81.6512 98.1747C81.1426 97.1449 80.8197 96.0332 80.6973 94.8909C80.5496 93.4836 80.6973 92.0246 80.1817 90.7017C79.7621 89.6345 78.9325 88.7432 78.0442 87.955C77.0471 87.0186 75.8821 86.2793 74.6106 85.776C73.3122 85.3069 71.8192 85.1873 70.5208 85.6658C69.3489 86.0973 68.4466 86.9582 67.5747 87.7955C66.9416 88.3538 66.3824 88.9907 65.9107 89.6908C65.3787 90.5633 65.1513 91.5672 64.9732 92.5571C64.6933 94.1418 64.5009 95.7408 64.3966 97.3468C64.3052 98.6861 64.1623 100.206 63.0185 101.027C62.4607 101.428 61.6756 101.653 61.4201 102.261C61.3477 102.443 61.3188 102.64 61.3357 102.835C61.3287 102.998 61.3405 103.161 61.3709 103.321C61.3873 103.415 61.406 103.506 61.4295 103.6C61.1012 104.417 60.8257 105.253 60.6045 106.105C60.4334 106.738 60.2764 107.36 60.1357 107.963H60.5154H60.717L62.9013 108.014H62.9318L65.2755 108.068H65.2873L67.4716 108.12H67.5255L68.156 108.165H68.3622L77.0973 108.366H77.1442L77.7254 108.38H77.9293L79.6778 108.42L82.2559 108.479H82.2746L84.2152 108.526H84.4215H84.8199L84.7168 106.49C85.1433 103.373 84.2973 103.178 84.2973 103.178ZM74.4841 102.929C74.4841 104.656 72.6372 106.769 72.6372 106.769L70.7786 104.236L70.8466 104.137L72.6372 106.577C72.6372 106.577 74.4841 104.466 74.4841 102.737C74.5271 102.649 74.5765 102.564 74.6317 102.484L74.6739 102.615C74.603 102.715 74.5395 102.82 74.4841 102.929ZM77.3247 109.703C77.3247 109.616 77.3247 109.527 77.3083 109.441C77.2918 109.354 77.2942 109.276 77.2825 109.192C77.2708 109.107 77.2614 109.025 77.2497 108.941C77.2379 108.857 77.2215 108.774 77.2051 108.69C77.1887 108.606 77.1723 108.523 77.1536 108.439C77.1536 108.411 77.1418 108.385 77.1348 108.355C77.109 108.244 77.0809 108.134 77.0504 108.024C77.02 107.914 77.0012 107.846 76.9731 107.759C76.9731 107.719 76.9497 107.679 76.9356 107.641C76.9215 107.604 76.8958 107.515 76.8747 107.452L76.8325 107.33C76.8137 107.276 76.795 107.219 76.7739 107.165C76.7387 107.067 76.7012 106.971 76.6637 106.872C76.6262 106.774 76.5864 106.677 76.5465 106.581C76.4669 106.384 76.3801 106.19 76.2934 105.993C75.9536 105.233 75.5716 104.484 75.22 103.743C75.0315 103.355 74.864 102.958 74.7184 102.552L74.6739 102.61C74.6029 102.711 74.5394 102.817 74.4841 102.927C74.4841 104.653 72.6372 106.767 72.6372 106.767L70.7786 104.233L69.1521 106.579C68.9177 106.696 68.6833 107.095 68.5005 107.663C68.449 107.815 68.3997 107.984 68.3529 108.16C68.32 108.279 68.2896 108.394 68.2615 108.528C68.2451 108.591 68.231 108.655 68.2169 108.72L68.1747 108.92V108.95C68.1466 109.086 68.1185 109.227 68.0927 109.37C68.0669 109.513 68.0365 109.677 68.0107 109.839C67.9919 109.941 67.9755 110.042 67.9615 110.142C67.9286 110.337 67.9005 110.534 67.8724 110.731C67.856 110.846 67.8396 110.965 67.8255 111.071L67.7693 111.507C67.8888 111.866 68.0224 112.211 68.1607 112.572C68.2486 112.762 68.3003 112.966 68.313 113.175C71.1962 113.944 74.2305 113.944 77.1137 113.175C77.1128 113.168 77.1128 113.161 77.1137 113.154C77.0705 112.957 77.0516 112.756 77.0575 112.555C77.1048 111.992 77.1831 111.431 77.2918 110.876C77.3265 110.602 77.3414 110.326 77.3364 110.05V109.952C77.3293 109.863 77.327 109.783 77.3247 109.706V109.703ZM77.3247 109.703C77.3247 109.616 77.3247 109.527 77.3083 109.441C77.2918 109.354 77.2942 109.276 77.2825 109.192C77.2708 109.107 77.2614 109.025 77.2497 108.941C77.2379 108.857 77.2215 108.774 77.2051 108.69C77.1887 108.606 77.1723 108.523 77.1536 108.439C77.1536 108.411 77.1418 108.385 77.1348 108.355C77.109 108.244 77.0809 108.134 77.0504 108.024C77.02 107.914 77.0012 107.846 76.9731 107.759C76.9731 107.719 76.9497 107.679 76.9356 107.641C76.9215 107.604 76.8958 107.515 76.8747 107.452L76.8325 107.33C76.8137 107.276 76.795 107.219 76.7739 107.165C76.7387 107.067 76.7012 106.971 76.6637 106.872C76.6262 106.774 76.5864 106.677 76.5465 106.581C76.4669 106.384 76.3801 106.19 76.2934 105.993C75.9536 105.233 75.5716 104.484 75.22 103.743C75.0315 103.355 74.864 102.958 74.7184 102.552L74.6739 102.61C74.6029 102.711 74.5394 102.817 74.4841 102.927C74.4841 104.653 72.6372 106.767 72.6372 106.767L70.7786 104.233L69.1521 106.579C68.9177 106.696 68.6833 107.095 68.5005 107.663C68.449 107.815 68.3997 107.984 68.3529 108.16C68.32 108.279 68.2896 108.394 68.2615 108.528C68.2451 108.591 68.231 108.655 68.2169 108.72L68.1747 108.92V108.95C68.1466 109.086 68.1185 109.227 68.0927 109.37C68.0669 109.513 68.0365 109.677 68.0107 109.839C67.9919 109.941 67.9755 110.042 67.9615 110.142C67.9286 110.337 67.9005 110.534 67.8724 110.731C67.856 110.846 67.8396 110.965 67.8255 111.071L67.7693 111.507C67.8888 111.866 68.0224 112.211 68.1607 112.572C68.2486 112.762 68.3003 112.966 68.313 113.175C71.1962 113.944 74.2305 113.944 77.1137 113.175C77.1128 113.168 77.1128 113.161 77.1137 113.154C77.0705 112.957 77.0516 112.756 77.0575 112.555C77.1048 111.992 77.1831 111.431 77.2918 110.876C77.3265 110.602 77.3414 110.326 77.3364 110.05V109.952C77.3293 109.863 77.327 109.783 77.3247 109.706V109.703ZM77.3247 109.703C77.3247 109.616 77.3247 109.527 77.3083 109.441C77.2918 109.354 77.2942 109.276 77.2825 109.192C77.2708 109.107 77.2614 109.025 77.2497 108.941C77.2379 108.857 77.2215 108.774 77.2051 108.69C77.1887 108.606 77.1723 108.523 77.1536 108.439C77.1536 108.411 77.1418 108.385 77.1348 108.355C77.109 108.244 77.0809 108.134 77.0504 108.024C77.02 107.914 77.0012 107.846 76.9731 107.759C76.9731 107.719 76.9497 107.679 76.9356 107.641C76.9215 107.604 76.8958 107.515 76.8747 107.452L76.8325 107.33C76.8137 107.276 76.795 107.219 76.7739 107.165C76.7387 107.067 76.7012 106.971 76.6637 106.872C76.6262 106.774 76.5864 106.677 76.5465 106.581C76.4669 106.384 76.3801 106.19 76.2934 105.993C75.9536 105.233 75.5716 104.484 75.22 103.743C75.0315 103.355 74.864 102.958 74.7184 102.552L74.6739 102.61C74.6029 102.711 74.5394 102.817 74.4841 102.927C74.4841 104.653 72.6372 106.767 72.6372 106.767L70.7786 104.233L69.1521 106.579C68.9177 106.696 68.6833 107.095 68.5005 107.663C68.449 107.815 68.3997 107.984 68.3529 108.16C68.32 108.279 68.2896 108.394 68.2615 108.528C68.2451 108.591 68.231 108.655 68.2169 108.72L68.1747 108.92V108.95C68.1466 109.086 68.1185 109.227 68.0927 109.37C68.0669 109.513 68.0365 109.677 68.0107 109.839C67.9919 109.941 67.9755 110.042 67.9615 110.142C67.9286 110.337 67.9005 110.534 67.8724 110.731C67.856 110.846 67.8396 110.965 67.8255 111.071L67.7693 111.507C67.8888 111.866 68.0224 112.211 68.1607 112.572C68.2486 112.762 68.3003 112.966 68.313 113.175C71.1962 113.944 74.2305 113.944 77.1137 113.175C77.1128 113.168 77.1128 113.161 77.1137 113.154C77.0705 112.957 77.0516 112.756 77.0575 112.555C77.1048 111.992 77.1831 111.431 77.2918 110.876C77.3265 110.602 77.3414 110.326 77.3364 110.05V109.952C77.3293 109.863 77.327 109.783 77.3247 109.706V109.703ZM77.3247 109.703C77.3247 109.616 77.3247 109.527 77.3083 109.441C77.2918 109.354 77.2942 109.276 77.2825 109.192C77.2708 109.107 77.2614 109.025 77.2497 108.941C77.2379 108.857 77.2215 108.774 77.2051 108.69C77.1887 108.606 77.1723 108.523 77.1536 108.439C77.1536 108.411 77.1418 108.385 77.1348 108.355C77.109 108.244 77.0809 108.134 77.0504 108.024C77.02 107.914 77.0012 107.846 76.9731 107.759C76.9731 107.719 76.9497 107.679 76.9356 107.641C76.9215 107.604 76.8958 107.515 76.8747 107.452L76.8325 107.33C76.8137 107.276 76.795 107.219 76.7739 107.165C76.7387 107.067 76.7012 106.971 76.6637 106.872C76.6262 106.774 76.5864 106.677 76.5465 106.581C76.4669 106.384 76.3801 106.19 76.2934 105.993C75.9536 105.233 75.5716 104.484 75.22 103.743C75.0315 103.355 74.864 102.958 74.7184 102.552L74.6739 102.61C74.6029 102.711 74.5394 102.817 74.4841 102.927C74.4841 104.653 72.6372 106.767 72.6372 106.767L70.7786 104.233L69.1521 106.579C68.9177 106.696 68.6833 107.095 68.5005 107.663C68.449 107.815 68.3997 107.984 68.3529 108.16C68.32 108.279 68.2896 108.394 68.2615 108.528C68.2451 108.591 68.231 108.655 68.2169 108.72L68.1747 108.92V108.95C68.1466 109.086 68.1185 109.227 68.0927 109.37C68.0669 109.513 68.0365 109.677 68.0107 109.839C67.9919 109.941 67.9755 110.042 67.9615 110.142C67.9286 110.337 67.9005 110.534 67.8724 110.731C67.856 110.846 67.8396 110.965 67.8255 111.071L67.7693 111.507C67.8888 111.866 68.0224 112.211 68.1607 112.572C68.2486 112.762 68.3003 112.966 68.313 113.175C71.1962 113.944 74.2305 113.944 77.1137 113.175C77.1128 113.168 77.1128 113.161 77.1137 113.154C77.0705 112.957 77.0516 112.756 77.0575 112.555C77.1048 111.992 77.1831 111.431 77.2918 110.876C77.3265 110.602 77.3414 110.326 77.3364 110.05V109.952C77.3293 109.863 77.327 109.783 77.3247 109.706V109.703Z" fill="url(#paint1_linear)"/>
<path opacity="0.5" d="M77.4091 93.3428H66.6279V100.614H77.4091V93.3428Z" fill="#493545"/>
<path opacity="0.5" d="M79.1996 101.362L74.688 107.723L69.9724 107.313C69.9724 107.313 63.8201 107.721 67.9216 103.004C69.8927 100.736 70.5372 98.8453 70.6755 97.4966C70.8255 96.0376 70.3825 95.2073 70.3825 95.2073L75.5083 94.5928C75.277 95.284 75.2477 96.027 75.4239 96.7343C76.0661 99.3989 79.1996 101.362 79.1996 101.362Z" fill="#C77485"/>
<path opacity="0.1" d="M75.4213 96.728C74.7527 97.2347 73.9702 97.5693 73.1423 97.7027C72.3144 97.836 71.4664 97.7639 70.6728 97.4927C70.8228 96.0338 70.3799 95.2034 70.3799 95.2034L75.5056 94.5889C75.2748 95.2794 75.2455 96.0215 75.4213 96.728Z" fill="black"/>
<path opacity="0.5" d="M72.3298 97.5623C75.1607 97.5623 77.4556 95.2656 77.4556 92.4325C77.4556 89.5994 75.1607 87.3027 72.3298 87.3027C69.499 87.3027 67.2041 89.5994 67.2041 92.4325C67.2041 95.2656 69.499 97.5623 72.3298 97.5623Z" fill="#C77485"/>
<path opacity="0.1" d="M79.0116 101.625L78.8921 101.156L78.7889 100.743L78.6366 100.133L78.6085 100.021L78.585 99.9268C78.585 99.9268 78.7069 99.5586 77.903 99.6782L77.753 99.704C77.6265 99.7298 77.4788 99.765 77.31 99.8119L77.1577 99.8588L76.9561 99.9221C76.318 100.13 75.736 100.482 75.2546 100.95C75.0385 101.156 74.8474 101.388 74.6851 101.639C74.6687 101.663 74.6569 101.684 74.6429 101.702C74.5874 101.79 74.538 101.88 74.4952 101.975C74.4952 103.823 72.6484 106.079 72.6484 106.079L70.846 103.473L70.8109 103.422L70.382 102.798L70.2296 102.596L70.1781 102.526L69.2406 101.266L69.0062 100.952L68.9289 100.846L68.814 100.694L68.5445 100.335L67.4898 100.952L66.0836 101.773L65.2633 107.109V107.257L65.2891 107.698L65.4602 110.597V110.637L65.1602 111.838L65.2047 111.861C65.9126 112.243 66.6492 112.57 67.4078 112.837L67.607 112.907C67.8414 112.985 68.0617 113.055 68.2914 113.123C68.2999 113.158 68.3062 113.193 68.3101 113.229C68.3101 113.196 68.3101 113.161 68.3101 113.128C71.1861 113.95 74.2348 113.95 77.1108 113.128L77.1647 113.111C77.2983 113.074 77.4343 113.034 77.5655 112.989L77.7788 112.921C78.3571 112.728 78.9237 112.501 79.4757 112.241L79.6725 108.043L79.8131 105.014V104.841L79.0116 101.625Z" fill="black"/>
<path opacity="0.5" d="M77.3243 109.424C77.3243 109.33 77.3243 109.237 77.3079 109.143C77.2915 109.049 77.2938 108.967 77.2821 108.878C77.2704 108.789 77.261 108.699 77.2493 108.61C77.2376 108.521 77.2212 108.432 77.2048 108.343C77.1884 108.254 77.172 108.165 77.1532 108.076C77.1532 108.045 77.1415 108.017 77.1345 107.986C77.1087 107.869 77.0806 107.752 77.0501 107.632C77.0196 107.513 77.0009 107.442 76.9727 107.348C76.9727 107.306 76.9493 107.264 76.9352 107.224C76.9212 107.184 76.8954 107.088 76.8743 107.02L76.8321 106.889C76.8134 106.83 76.7946 106.771 76.7735 106.713C76.7384 106.607 76.7009 106.504 76.6634 106.398C76.6259 106.293 76.586 106.19 76.5462 106.086C76.4665 105.875 76.3798 105.667 76.2931 105.458C75.9532 104.646 75.5712 103.846 75.2196 103.054C75.0307 102.638 74.8633 102.213 74.7181 101.78L74.6735 101.843C74.6023 101.951 74.5389 102.064 74.4837 102.181C74.4837 104.027 72.6368 106.286 72.6368 106.286L70.7783 103.577L69.1517 106.079C68.9174 106.204 68.683 106.631 68.5002 107.238C68.4486 107.402 68.3994 107.581 68.3525 107.771C68.3197 107.897 68.2892 108.031 68.2611 108.165C68.2447 108.233 68.2306 108.301 68.2166 108.371L68.1744 108.585V108.617C68.1463 108.763 68.1181 108.913 68.0924 109.065C68.0666 109.218 68.0361 109.394 68.0103 109.56C67.9916 109.668 67.9752 109.776 67.9611 109.884C67.9283 110.093 67.9002 110.304 67.872 110.513C67.8556 110.635 67.8392 110.747 67.8252 110.876L67.7689 111.345C67.8885 111.73 68.022 112.11 68.1603 112.483C68.2487 112.687 68.3002 112.906 68.3127 113.128C71.1887 113.95 74.2374 113.95 77.1134 113.128C77.1123 113.12 77.1123 113.112 77.1134 113.104C77.0701 112.894 77.0512 112.679 77.0571 112.464C77.1044 111.862 77.1827 111.263 77.2915 110.67C77.3261 110.377 77.341 110.082 77.336 109.788V109.682C77.329 109.593 77.3267 109.509 77.3243 109.424ZM77.3243 109.424C77.3243 109.33 77.3243 109.237 77.3079 109.143C77.2915 109.049 77.2938 108.967 77.2821 108.878C77.2704 108.789 77.261 108.699 77.2493 108.61C77.2376 108.521 77.2212 108.432 77.2048 108.343C77.1884 108.254 77.172 108.165 77.1532 108.076C77.1532 108.045 77.1415 108.017 77.1345 107.986C77.1087 107.869 77.0806 107.752 77.0501 107.632C77.0196 107.513 77.0009 107.442 76.9727 107.348C76.9727 107.306 76.9493 107.264 76.9352 107.224C76.9212 107.184 76.8954 107.088 76.8743 107.02L76.8321 106.889C76.8134 106.83 76.7946 106.771 76.7735 106.713C76.7384 106.607 76.7009 106.504 76.6634 106.398C76.6259 106.293 76.586 106.19 76.5462 106.086C76.4665 105.875 76.3798 105.667 76.2931 105.458C75.9532 104.646 75.5712 103.846 75.2196 103.054C75.0307 102.638 74.8633 102.213 74.7181 101.78L74.6735 101.843C74.6023 101.951 74.5389 102.064 74.4837 102.181C74.4837 104.027 72.6368 106.286 72.6368 106.286L70.7783 103.577L69.1517 106.079C68.9174 106.204 68.683 106.631 68.5002 107.238C68.4486 107.402 68.3994 107.581 68.3525 107.771C68.3197 107.897 68.2892 108.031 68.2611 108.165C68.2447 108.233 68.2306 108.301 68.2166 108.371L68.1744 108.585V108.617C68.1463 108.763 68.1181 108.913 68.0924 109.065C68.0666 109.218 68.0361 109.394 68.0103 109.56C67.9916 109.668 67.9752 109.776 67.9611 109.884C67.9283 110.093 67.9002 110.304 67.872 110.513C67.8556 110.635 67.8392 110.747 67.8252 110.876L67.7689 111.345C67.8885 111.73 68.022 112.11 68.1603 112.483C68.2487 112.687 68.3002 112.906 68.3127 113.128C71.1887 113.95 74.2374 113.95 77.1134 113.128C77.1123 113.12 77.1123 113.112 77.1134 113.104C77.0701 112.894 77.0512 112.679 77.0571 112.464C77.1044 111.862 77.1827 111.263 77.2915 110.67C77.3261 110.377 77.341 110.082 77.336 109.788V109.682C77.329 109.593 77.3267 109.509 77.3243 109.424ZM77.3243 109.424C77.3243 109.33 77.3243 109.237 77.3079 109.143C77.2915 109.049 77.2938 108.967 77.2821 108.878C77.2704 108.789 77.261 108.699 77.2493 108.61C77.2376 108.521 77.2212 108.432 77.2048 108.343C77.1884 108.254 77.172 108.165 77.1532 108.076C77.1532 108.045 77.1415 108.017 77.1345 107.986C77.1087 107.869 77.0806 107.752 77.0501 107.632C77.0196 107.513 77.0009 107.442 76.9727 107.348C76.9727 107.306 76.9493 107.264 76.9352 107.224C76.9212 107.184 76.8954 107.088 76.8743 107.02L76.8321 106.889C76.8134 106.83 76.7946 106.771 76.7735 106.713C76.7384 106.607 76.7009 106.504 76.6634 106.398C76.6259 106.293 76.586 106.19 76.5462 106.086C76.4665 105.875 76.3798 105.667 76.2931 105.458C75.9532 104.646 75.5712 103.846 75.2196 103.054C75.0307 102.638 74.8633 102.213 74.7181 101.78L74.6735 101.843C74.6023 101.951 74.5389 102.064 74.4837 102.181C74.4837 104.027 72.6368 106.286 72.6368 106.286L70.7783 103.577L69.1517 106.079C68.9174 106.204 68.683 106.631 68.5002 107.238C68.4486 107.402 68.3994 107.581 68.3525 107.771C68.3197 107.897 68.2892 108.031 68.2611 108.165C68.2447 108.233 68.2306 108.301 68.2166 108.371L68.1744 108.585V108.617C68.1463 108.763 68.1181 108.913 68.0924 109.065C68.0666 109.218 68.0361 109.394 68.0103 109.56C67.9916 109.668 67.9752 109.776 67.9611 109.884C67.9283 110.093 67.9002 110.304 67.872 110.513C67.8556 110.635 67.8392 110.747 67.8252 110.876L67.7689 111.345C67.8885 111.73 68.022 112.11 68.1603 112.483C68.2487 112.687 68.3002 112.906 68.3127 113.128C71.1887 113.95 74.2374 113.95 77.1134 113.128C77.1123 113.12 77.1123 113.112 77.1134 113.104C77.0701 112.894 77.0512 112.679 77.0571 112.464C77.1044 111.862 77.1827 111.263 77.2915 110.67C77.3261 110.377 77.341 110.082 77.336 109.788V109.682C77.329 109.593 77.3267 109.509 77.3243 109.424ZM79.8087 105.022L78.9719 101.679L78.829 101.107L78.7891 100.95L78.5852 100.133C78.5857 100.126 78.5857 100.119 78.5852 100.112C78.5901 100.076 78.5844 100.04 78.5688 100.007C78.5384 99.9457 78.461 99.8824 78.2806 99.866C78.2119 99.8611 78.143 99.8611 78.0743 99.866C77.8707 99.8861 77.6691 99.9238 77.472 99.9786C77.3759 100.004 77.2727 100.032 77.1626 100.068L76.961 100.131H76.9423C76.4025 100.308 75.9013 100.587 75.4657 100.952C75.178 101.192 74.9255 101.472 74.7157 101.782L74.6712 101.846C74.5999 101.954 74.5365 102.066 74.4814 102.183C74.4814 104.029 72.6345 106.288 72.6345 106.288L70.7759 103.579L70.6705 103.427L70.6517 103.401L70.3822 103.004L70.1783 102.732L70.1244 102.662L69.1634 101.379L68.8588 100.964V100.95L68.7533 100.807L68.5517 100.539L67.8486 100.95L66.0908 101.975L65.2799 107.255V107.311L65.3033 107.696L65.4768 110.635V110.801L65.2119 111.859C65.9198 112.241 66.6564 112.567 67.415 112.835L67.6142 112.905C67.8486 112.982 68.0689 113.053 68.2986 113.121C68.3071 113.156 68.3134 113.191 68.3174 113.226C68.3174 113.194 68.3174 113.158 68.3174 113.126C71.1934 113.948 74.2421 113.948 77.1181 113.126L77.172 113.109C77.3056 113.072 77.4415 113.032 77.5727 112.987L77.786 112.919C78.3644 112.726 78.9309 112.498 79.4829 112.239L79.6774 108.045L79.818 105.05L79.8087 105.022ZM68.2822 113.121C68.2907 113.156 68.297 113.191 68.3009 113.226C68.3009 113.194 68.3009 113.158 68.3009 113.126L68.2822 113.121ZM77.3243 109.424C77.3243 109.33 77.3243 109.237 77.3079 109.143C77.2915 109.049 77.2938 108.967 77.2821 108.878C77.2704 108.789 77.261 108.699 77.2493 108.61C77.2376 108.521 77.2212 108.432 77.2048 108.343C77.1884 108.254 77.172 108.165 77.1532 108.076C77.1532 108.045 77.1415 108.017 77.1345 107.986C77.1087 107.869 77.0806 107.752 77.0501 107.632C77.0196 107.513 77.0009 107.442 76.9727 107.348C76.9727 107.306 76.9493 107.264 76.9352 107.224C76.9212 107.184 76.8954 107.088 76.8743 107.02L76.8321 106.889C76.8134 106.83 76.7946 106.771 76.7735 106.713C76.7384 106.607 76.7009 106.504 76.6634 106.398C76.6259 106.293 76.586 106.19 76.5462 106.086C76.4665 105.875 76.3798 105.667 76.2931 105.458C75.9532 104.646 75.5712 103.846 75.2196 103.054C75.0307 102.638 74.8633 102.213 74.7181 101.78L74.6735 101.843C74.6023 101.951 74.5389 102.064 74.4837 102.181C74.4837 104.027 72.6368 106.286 72.6368 106.286L70.7783 103.577L69.1517 106.079C68.9174 106.204 68.683 106.631 68.5002 107.238C68.4486 107.402 68.3994 107.581 68.3525 107.771C68.3197 107.897 68.2892 108.031 68.2611 108.165C68.2447 108.233 68.2306 108.301 68.2166 108.371L68.1744 108.585V108.617C68.1463 108.763 68.1181 108.913 68.0924 109.065C68.0666 109.218 68.0361 109.394 68.0103 109.56C67.9916 109.668 67.9752 109.776 67.9611 109.884C67.9283 110.093 67.9002 110.304 67.872 110.513C67.8556 110.635 67.8392 110.747 67.8252 110.876L67.7689 111.345C67.8885 111.73 68.022 112.11 68.1603 112.483C68.2487 112.687 68.3002 112.906 68.3127 113.128C71.1887 113.95 74.2374 113.95 77.1134 113.128C77.1123 113.12 77.1123 113.112 77.1134 113.104C77.0701 112.894 77.0512 112.679 77.0571 112.464C77.1044 111.862 77.1827 111.263 77.2915 110.67C77.3261 110.377 77.341 110.082 77.336 109.788V109.682C77.329 109.593 77.3267 109.509 77.3243 109.424ZM77.3243 109.424C77.3243 109.33 77.3243 109.237 77.3079 109.143C77.2915 109.049 77.2938 108.967 77.2821 108.878C77.2704 108.789 77.261 108.699 77.2493 108.61C77.2376 108.521 77.2212 108.432 77.2048 108.343C77.1884 108.254 77.172 108.165 77.1532 108.076C77.1532 108.045 77.1415 108.017 77.1345 107.986C77.1087 107.869 77.0806 107.752 77.0501 107.632C77.0196 107.513 77.0009 107.442 76.9727 107.348C76.9727 107.306 76.9493 107.264 76.9352 107.224C76.9212 107.184 76.8954 107.088 76.8743 107.02L76.8321 106.889C76.8134 106.83 76.7946 106.771 76.7735 106.713C76.7384 106.607 76.7009 106.504 76.6634 106.398C76.6259 106.293 76.586 106.19 76.5462 106.086C76.4665 105.875 76.3798 105.667 76.2931 105.458C75.9532 104.646 75.5712 103.846 75.2196 103.054C75.0307 102.638 74.8633 102.213 74.7181 101.78L74.6735 101.843C74.6023 101.951 74.5389 102.064 74.4837 102.181C74.4837 104.027 72.6368 106.286 72.6368 106.286L70.7783 103.577L69.1517 106.079C68.9174 106.204 68.683 106.631 68.5002 107.238C68.4486 107.402 68.3994 107.581 68.3525 107.771C68.3197 107.897 68.2892 108.031 68.2611 108.165C68.2447 108.233 68.2306 108.301 68.2166 108.371L68.1744 108.585V108.617C68.1463 108.763 68.1181 108.913 68.0924 109.065C68.0666 109.218 68.0361 109.394 68.0103 109.56C67.9916 109.668 67.9752 109.776 67.9611 109.884C67.9283 110.093 67.9002 110.304 67.872 110.513C67.8556 110.635 67.8392 110.747 67.8252 110.876L67.7689 111.345C67.8885 111.73 68.022 112.11 68.1603 112.483C68.2487 112.687 68.3002 112.906 68.3127 113.128C71.1887 113.95 74.2374 113.95 77.1134 113.128C77.1123 113.12 77.1123 113.112 77.1134 113.104C77.0701 112.894 77.0512 112.679 77.0571 112.464C77.1044 111.862 77.1827 111.263 77.2915 110.67C77.3261 110.377 77.341 110.082 77.336 109.788V109.682C77.329 109.593 77.3267 109.509 77.3243 109.424ZM77.3243 109.424C77.3243 109.33 77.3243 109.237 77.3079 109.143C77.2915 109.049 77.2938 108.967 77.2821 108.878C77.2704 108.789 77.261 108.699 77.2493 108.61C77.2376 108.521 77.2212 108.432 77.2048 108.343C77.1884 108.254 77.172 108.165 77.1532 108.076C77.1532 108.045 77.1415 108.017 77.1345 107.986C77.1087 107.869 77.0806 107.752 77.0501 107.632C77.0196 107.513 77.0009 107.442 76.9727 107.348C76.9727 107.306 76.9493 107.264 76.9352 107.224C76.9212 107.184 76.8954 107.088 76.8743 107.02L76.8321 106.889C76.8134 106.83 76.7946 106.771 76.7735 106.713C76.7384 106.607 76.7009 106.504 76.6634 106.398C76.6259 106.293 76.586 106.19 76.5462 106.086C76.4665 105.875 76.3798 105.667 76.2931 105.458C75.9532 104.646 75.5712 103.846 75.2196 103.054C75.0307 102.638 74.8633 102.213 74.7181 101.78L74.6735 101.843C74.6023 101.951 74.5389 102.064 74.4837 102.181C74.4837 104.027 72.6368 106.286 72.6368 106.286L70.7783 103.577L69.1517 106.079C68.9174 106.204 68.683 106.631 68.5002 107.238C68.4486 107.402 68.3994 107.581 68.3525 107.771C68.3197 107.897 68.2892 108.031 68.2611 108.165C68.2447 108.233 68.2306 108.301 68.2166 108.371L68.1744 108.585V108.617C68.1463 108.763 68.1181 108.913 68.0924 109.065C68.0666 109.218 68.0361 109.394 68.0103 109.56C67.9916 109.668 67.9752 109.776 67.9611 109.884C67.9283 110.093 67.9002 110.304 67.872 110.513C67.8556 110.635 67.8392 110.747 67.8252 110.876L67.7689 111.345C67.8885 111.73 68.022 112.11 68.1603 112.483C68.2487 112.687 68.3002 112.906 68.3127 113.128C71.1887 113.95 74.2374 113.95 77.1134 113.128C77.1123 113.12 77.1123 113.112 77.1134 113.104C77.0701 112.894 77.0512 112.679 77.0571 112.464C77.1044 111.862 77.1827 111.263 77.2915 110.67C77.3261 110.377 77.341 110.082 77.336 109.788V109.682C77.329 109.593 77.3267 109.509 77.3243 109.424ZM77.3243 109.424C77.3243 109.33 77.3243 109.237 77.3079 109.143C77.2915 109.049 77.2938 108.967 77.2821 108.878C77.2704 108.789 77.261 108.699 77.2493 108.61C77.2376 108.521 77.2212 108.432 77.2048 108.343C77.1884 108.254 77.172 108.165 77.1532 108.076C77.1532 108.045 77.1415 108.017 77.1345 107.986C77.1087 107.869 77.0806 107.752 77.0501 107.632C77.0196 107.513 77.0009 107.442 76.9727 107.348C76.9727 107.306 76.9493 107.264 76.9352 107.224C76.9212 107.184 76.8954 107.088 76.8743 107.02L76.8321 106.889C76.8134 106.83 76.7946 106.771 76.7735 106.713C76.7384 106.607 76.7009 106.504 76.6634 106.398C76.6259 106.293 76.586 106.19 76.5462 106.086C76.4665 105.875 76.3798 105.667 76.2931 105.458C75.9532 104.646 75.5712 103.846 75.2196 103.054C75.0307 102.638 74.8633 102.213 74.7181 101.78L74.6735 101.843C74.6023 101.951 74.5389 102.064 74.4837 102.181C74.4837 104.027 72.6368 106.286 72.6368 106.286L70.7783 103.577L69.1517 106.079C68.9174 106.204 68.683 106.631 68.5002 107.238C68.4486 107.402 68.3994 107.581 68.3525 107.771C68.3197 107.897 68.2892 108.031 68.2611 108.165C68.2447 108.233 68.2306 108.301 68.2166 108.371L68.1744 108.585V108.617C68.1463 108.763 68.1181 108.913 68.0924 109.065C68.0666 109.218 68.0361 109.394 68.0103 109.56C67.9916 109.668 67.9752 109.776 67.9611 109.884C67.9283 110.093 67.9002 110.304 67.872 110.513C67.8556 110.635 67.8392 110.747 67.8252 110.876L67.7689 111.345C67.8885 111.73 68.022 112.11 68.1603 112.483C68.2487 112.687 68.3002 112.906 68.3127 113.128C71.1887 113.95 74.2374 113.95 77.1134 113.128C77.1123 113.12 77.1123 113.112 77.1134 113.104C77.0701 112.894 77.0512 112.679 77.0571 112.464C77.1044 111.862 77.1827 111.263 77.2915 110.67C77.3261 110.377 77.341 110.082 77.336 109.788V109.682C77.329 109.593 77.3267 109.509 77.3243 109.424ZM77.3243 109.424C77.3243 109.33 77.3243 109.237 77.3079 109.143C77.2915 109.049 77.2938 108.967 77.2821 108.878C77.2704 108.789 77.261 108.699 77.2493 108.61C77.2376 108.521 77.2212 108.432 77.2048 108.343C77.1884 108.254 77.172 108.165 77.1532 108.076C77.1532 108.045 77.1415 108.017 77.1345 107.986C77.1087 107.869 77.0806 107.752 77.0501 107.632C77.0196 107.513 77.0009 107.442 76.9727 107.348C76.9727 107.306 76.9493 107.264 76.9352 107.224C76.9212 107.184 76.8954 107.088 76.8743 107.02L76.8321 106.889C76.8134 106.83 76.7946 106.771 76.7735 106.713C76.7384 106.607 76.7009 106.504 76.6634 106.398C76.6259 106.293 76.586 106.19 76.5462 106.086C76.4665 105.875 76.3798 105.667 76.2931 105.458C75.9532 104.646 75.5712 103.846 75.2196 103.054C75.0307 102.638 74.8633 102.213 74.7181 101.78L74.6735 101.843C74.6023 101.951 74.5389 102.064 74.4837 102.181C74.4837 104.027 72.6368 106.286 72.6368 106.286L70.7783 103.577L69.1517 106.079C68.9174 106.204 68.683 106.631 68.5002 107.238C68.4486 107.402 68.3994 107.581 68.3525 107.771C68.3197 107.897 68.2892 108.031 68.2611 108.165C68.2447 108.233 68.2306 108.301 68.2166 108.371L68.1744 108.585V108.617C68.1463 108.763 68.1181 108.913 68.0924 109.065C68.0666 109.218 68.0361 109.394 68.0103 109.56C67.9916 109.668 67.9752 109.776 67.9611 109.884C67.9283 110.093 67.9002 110.304 67.872 110.513C67.8556 110.635 67.8392 110.747 67.8252 110.876L67.7689 111.345C67.8885 111.73 68.022 112.11 68.1603 112.483C68.2487 112.687 68.3002 112.906 68.3127 113.128C71.1887 113.95 74.2374 113.95 77.1134 113.128C77.1123 113.12 77.1123 113.112 77.1134 113.104C77.0701 112.894 77.0512 112.679 77.0571 112.464C77.1044 111.862 77.1827 111.263 77.2915 110.67C77.3261 110.377 77.341 110.082 77.336 109.788V109.682C77.329 109.593 77.3267 109.509 77.3243 109.424ZM77.3243 109.424C77.3243 109.33 77.3243 109.237 77.3079 109.143C77.2915 109.049 77.2938 108.967 77.2821 108.878C77.2704 108.789 77.261 108.699 77.2493 108.61C77.2376 108.521 77.2212 108.432 77.2048 108.343C77.1884 108.254 77.172 108.165 77.1532 108.076C77.1532 108.045 77.1415 108.017 77.1345 107.986C77.1087 107.869 77.0806 107.752 77.0501 107.632C77.0196 107.513 77.0009 107.442 76.9727 107.348C76.9727 107.306 76.9493 107.264 76.9352 107.224C76.9212 107.184 76.8954 107.088 76.8743 107.02L76.8321 106.889C76.8134 106.83 76.7946 106.771 76.7735 106.713C76.7384 106.607 76.7009 106.504 76.6634 106.398C76.6259 106.293 76.586 106.19 76.5462 106.086C76.4665 105.875 76.3798 105.667 76.2931 105.458C75.9532 104.646 75.5712 103.846 75.2196 103.054C75.0307 102.638 74.8633 102.213 74.7181 101.78L74.6735 101.843C74.6023 101.951 74.5389 102.064 74.4837 102.181C74.4837 104.027 72.6368 106.286 72.6368 106.286L70.7783 103.577L69.1517 106.079C68.9174 106.204 68.683 106.631 68.5002 107.238C68.4486 107.402 68.3994 107.581 68.3525 107.771C68.3197 107.897 68.2892 108.031 68.2611 108.165C68.2447 108.233 68.2306 108.301 68.2166 108.371L68.1744 108.585V108.617C68.1463 108.763 68.1181 108.913 68.0924 109.065C68.0666 109.218 68.0361 109.394 68.0103 109.56C67.9916 109.668 67.9752 109.776 67.9611 109.884C67.9283 110.093 67.9002 110.304 67.872 110.513C67.8556 110.635 67.8392 110.747 67.8252 110.876L67.7689 111.345C67.8885 111.73 68.022 112.11 68.1603 112.483C68.2487 112.687 68.3002 112.906 68.3127 113.128C71.1887 113.95 74.2374 113.95 77.1134 113.128C77.1123 113.12 77.1123 113.112 77.1134 113.104C77.0701 112.894 77.0512 112.679 77.0571 112.464C77.1044 111.862 77.1827 111.263 77.2915 110.67C77.3261 110.377 77.341 110.082 77.336 109.788V109.682C77.329 109.593 77.3267 109.509 77.3243 109.424ZM77.3243 109.424C77.3243 109.33 77.3243 109.237 77.3079 109.143C77.2915 109.049 77.2938 108.967 77.2821 108.878C77.2704 108.789 77.261 108.699 77.2493 108.61C77.2376 108.521 77.2212 108.432 77.2048 108.343C77.1884 108.254 77.172 108.165 77.1532 108.076C77.1532 108.045 77.1415 108.017 77.1345 107.986C77.1087 107.869 77.0806 107.752 77.0501 107.632C77.0196 107.513 77.0009 107.442 76.9727 107.348C76.9727 107.306 76.9493 107.264 76.9352 107.224C76.9212 107.184 76.8954 107.088 76.8743 107.02L76.8321 106.889C76.8134 106.83 76.7946 106.771 76.7735 106.713C76.7384 106.607 76.7009 106.504 76.6634 106.398C76.6259 106.293 76.586 106.19 76.5462 106.086C76.4665 105.875 76.3798 105.667 76.2931 105.458C75.9532 104.646 75.5712 103.846 75.2196 103.054C75.0307 102.638 74.8633 102.213 74.7181 101.78L74.6735 101.843C74.6023 101.951 74.5389 102.064 74.4837 102.181C74.4837 104.027 72.6368 106.286 72.6368 106.286L70.7783 103.577L69.1517 106.079C68.9174 106.204 68.683 106.631 68.5002 107.238C68.4486 107.402 68.3994 107.581 68.3525 107.771C68.3197 107.897 68.2892 108.031 68.2611 108.165C68.2447 108.233 68.2306 108.301 68.2166 108.371L68.1744 108.585V108.617C68.1463 108.763 68.1181 108.913 68.0924 109.065C68.0666 109.218 68.0361 109.394 68.0103 109.56C67.9916 109.668 67.9752 109.776 67.9611 109.884C67.9283 110.093 67.9002 110.304 67.872 110.513C67.8556 110.635 67.8392 110.747 67.8252 110.876L67.7689 111.345C67.8885 111.73 68.022 112.11 68.1603 112.483C68.2487 112.687 68.3002 112.906 68.3127 113.128C71.1887 113.95 74.2374 113.95 77.1134 113.128C77.1123 113.12 77.1123 113.112 77.1134 113.104C77.0701 112.894 77.0512 112.679 77.0571 112.464C77.1044 111.862 77.1827 111.263 77.2915 110.67C77.3261 110.377 77.341 110.082 77.336 109.788V109.682C77.329 109.593 77.3267 109.509 77.3243 109.424ZM77.3243 109.424C77.3243 109.33 77.3243 109.237 77.3079 109.143C77.2915 109.049 77.2938 108.967 77.2821 108.878C77.2704 108.789 77.261 108.699 77.2493 108.61C77.2376 108.521 77.2212 108.432 77.2048 108.343C77.1884 108.254 77.172 108.165 77.1532 108.076C77.1532 108.045 77.1415 108.017 77.1345 107.986C77.1087 107.869 77.0806 107.752 77.0501 107.632C77.0196 107.513 77.0009 107.442 76.9727 107.348C76.9727 107.306 76.9493 107.264 76.9352 107.224C76.9212 107.184 76.8954 107.088 76.8743 107.02L76.8321 106.889C76.8134 106.83 76.7946 106.771 76.7735 106.713C76.7384 106.607 76.7009 106.504 76.6634 106.398C76.6259 106.293 76.586 106.19 76.5462 106.086C76.4665 105.875 76.3798 105.667 76.2931 105.458C75.9532 104.646 75.5712 103.846 75.2196 103.054C75.0307 102.638 74.8633 102.213 74.7181 101.78L74.6735 101.843C74.6023 101.951 74.5389 102.064 74.4837 102.181C74.4837 104.027 72.6368 106.286 72.6368 106.286L70.7783 103.577L69.1517 106.079C68.9174 106.204 68.683 106.631 68.5002 107.238C68.4486 107.402 68.3994 107.581 68.3525 107.771C68.3197 107.897 68.2892 108.031 68.2611 108.165C68.2447 108.233 68.2306 108.301 68.2166 108.371L68.1744 108.585V108.617C68.1463 108.763 68.1181 108.913 68.0924 109.065C68.0666 109.218 68.0361 109.394 68.0103 109.56C67.9916 109.668 67.9752 109.776 67.9611 109.884C67.9283 110.093 67.9002 110.304 67.872 110.513C67.8556 110.635 67.8392 110.747 67.8252 110.876L67.7689 111.345C67.8885 111.73 68.022 112.11 68.1603 112.483C68.2487 112.687 68.3002 112.906 68.3127 113.128C71.1887 113.95 74.2374 113.95 77.1134 113.128C77.1123 113.12 77.1123 113.112 77.1134 113.104C77.0701 112.894 77.0512 112.679 77.0571 112.464C77.1044 111.862 77.1827 111.263 77.2915 110.67C77.3261 110.377 77.341 110.082 77.336 109.788V109.682C77.329 109.593 77.3267 109.509 77.3243 109.424Z" fill="white"/>
<path opacity="0.1" d="M70.8108 103.419L70.6538 103.398C70.4167 103.366 70.1819 103.319 69.9507 103.257L69.864 103.234C69.2921 103.072 68.6663 102.781 68.5257 102.27C68.4838 102.105 68.4887 101.932 68.5398 101.77C68.6185 101.491 68.7253 101.221 68.8585 100.963V100.949C68.8761 100.913 68.8957 100.878 68.9171 100.844C69.1105 100.465 69.4029 100.147 69.7632 99.9219L69.482 99.9664L67.1007 100.353L63.4094 100.949C63.4094 100.949 62.7531 100.818 61.8601 103.281C61.8601 103.311 61.8391 103.339 61.8297 103.372C61.6141 103.975 61.3867 104.728 61.1523 105.669C60.9906 106.321 60.843 106.961 60.707 107.583C60.6672 107.77 60.6273 107.956 60.5898 108.138C61.0124 108.637 61.4673 109.107 61.9516 109.546L62.0289 109.619C62.9774 110.478 64.0255 111.221 65.1507 111.83L65.1953 111.854C65.9032 112.236 66.6398 112.562 67.3984 112.83L67.5976 112.9C67.6398 112.466 67.6867 111.985 67.7429 111.493C67.7429 111.443 67.7429 111.394 67.7617 111.345L67.8179 110.876C67.832 110.756 67.8484 110.641 67.8648 110.512C67.8929 110.303 67.921 110.092 67.9538 109.884C67.9679 109.776 67.9843 109.668 68.0031 109.56C68.0288 109.393 68.057 109.227 68.0851 109.065C68.1132 108.903 68.139 108.762 68.1671 108.617V108.584L68.2093 108.371C68.2234 108.3 68.2374 108.232 68.2538 108.164C68.282 108.031 68.3124 107.897 68.3452 107.77C68.3921 107.58 68.4413 107.402 68.4929 107.238C68.6804 106.63 68.8984 106.203 69.1445 106.079L70.771 103.576L70.839 103.471L70.8694 103.424L70.8108 103.419Z" fill="black"/>
<path opacity="0.1" d="M67.8515 86.8057C67.6172 87.1294 67.6359 87.5751 67.5304 87.9785C67.2797 88.8956 66.2859 89.4703 66.0586 90.3945C65.925 90.934 66.0797 91.5063 65.9883 92.0551C65.8219 93.0661 64.8984 93.751 64.3828 94.6353C64.1214 95.0908 63.9665 95.5997 63.9295 96.1237C63.8926 96.6477 63.9746 97.1733 64.1695 97.6611C64.2902 97.9071 64.3897 98.1629 64.4672 98.4258C64.5263 98.8174 64.5016 99.2172 64.3945 99.5986C64.2188 100.434 64.0383 101.353 64.4414 102.106C64.7813 102.742 65.4867 103.115 66.1969 103.232C66.914 103.313 67.6394 103.28 68.3461 103.133C69.1218 103.014 69.9164 102.875 70.5914 102.477L68.0531 96.3452C67.7976 95.726 67.5351 95.0856 67.5375 94.4148C67.5581 93.9199 67.6652 93.4325 67.8539 92.9746C68.3453 91.6479 69.0586 90.4146 69.9632 89.3272C70.3312 89.7541 70.3031 90.4039 70.6101 90.8777C70.8814 91.228 71.2427 91.498 71.6554 91.6587C72.8581 92.2459 74.0937 92.7628 75.3562 93.2068C75.4354 93.2168 75.5109 93.2461 75.5761 93.2923C75.6412 93.3385 75.694 93.4 75.7297 93.4714C75.7654 93.5429 75.7829 93.6221 75.7807 93.7019C75.7785 93.7818 75.7567 93.8599 75.7171 93.9293L74.7608 97.8792C74.5499 98.7494 74.3648 99.7557 74.9062 100.459C75.4476 101.163 76.6686 101.496 76.6757 102.404C76.6657 102.548 76.6657 102.692 76.6757 102.835C76.739 103.26 77.2429 103.464 77.6718 103.485C78.3758 103.499 79.062 103.262 79.6076 102.817C80.1533 102.371 80.5229 101.746 80.6506 101.053C80.885 99.5 79.8585 98.0692 79.4296 96.5563C78.7077 94.0114 79.6639 91.0254 78.246 88.7901C77.0975 86.977 75.0046 86.4844 73.0171 86.2592C71.6226 86.095 68.8336 85.5086 67.8515 86.8057Z" fill="black"/>
<path opacity="0.5" d="M67.8515 86.5714C67.6172 86.895 67.6359 87.3407 67.5304 87.7441C67.2797 88.6613 66.2859 89.2359 66.0586 90.1601C65.925 90.6996 66.0797 91.2719 65.9883 91.8208C65.8219 92.8317 64.8984 93.5166 64.3828 94.4009C64.1214 94.8565 63.9665 95.3653 63.9295 95.8893C63.8926 96.4133 63.9746 96.9389 64.1695 97.4267C64.2902 97.6727 64.3897 97.9285 64.4672 98.1914C64.5263 98.583 64.5016 98.9828 64.3945 99.3642C64.2188 100.199 64.0383 101.119 64.4414 101.872C64.7813 102.507 65.4867 102.88 66.1969 102.997C66.914 103.079 67.6394 103.045 68.3461 102.899C69.1218 102.779 69.9164 102.641 70.5914 102.242L68.0531 96.1108C67.7976 95.4916 67.5351 94.8513 67.5375 94.1804C67.5581 93.6856 67.6652 93.1981 67.8539 92.7402C68.3453 91.4135 69.0586 90.1802 69.9632 89.0929C70.3312 89.5197 70.3031 90.1695 70.6101 90.6433C70.8814 90.9936 71.2427 91.2636 71.6554 91.4244C72.8581 92.0115 74.0937 92.5284 75.3562 92.9724C75.4354 92.9824 75.5109 93.0117 75.5761 93.0579C75.6412 93.1041 75.694 93.1656 75.7297 93.2371C75.7654 93.3085 75.7829 93.3877 75.7807 93.4676C75.7785 93.5474 75.7567 93.6255 75.7171 93.6949L74.7608 97.6448C74.5499 98.5151 74.3648 99.5213 74.9062 100.225C75.4476 100.929 76.6686 101.262 76.6757 102.169C76.6657 102.313 76.6657 102.457 76.6757 102.601C76.739 103.026 77.2429 103.23 77.6718 103.251C78.3758 103.265 79.062 103.028 79.6076 102.582C80.1533 102.137 80.5229 101.512 80.6506 100.818C80.885 99.2656 79.8585 97.8348 79.4296 96.3219C78.7077 93.777 79.6639 90.791 78.246 88.5557C77.0975 86.7426 75.0046 86.25 73.0171 86.0248C71.6226 85.8606 68.8336 85.2742 67.8515 86.5714Z" fill="#493545"/>
</g>
<g opacity="0.5">
<path opacity="0.5" d="M66.4105 149.397C66.4316 150.183 65.8972 150.854 65.473 151.508C65.0488 152.162 64.7347 153.056 65.1706 153.711C65.3136 153.926 65.5292 154.093 65.6581 154.318C66.1105 155.104 65.3581 156.007 65.0839 156.87C64.7675 157.867 65.1355 158.981 65.8011 159.79C66.4667 160.6 67.3855 161.146 68.3136 161.627C70.265 162.668 72.3595 163.414 74.5291 163.841C75.6635 164.05 76.8729 164.144 77.9369 163.689C78.6752 163.35 79.2783 162.772 79.6493 162.049C80.0204 161.326 80.1379 160.499 79.983 159.701C79.7135 158.467 78.8111 157.475 78.3424 156.309C78.233 156.081 78.1799 155.829 78.1877 155.575C78.2275 155.132 78.5674 154.785 78.8322 154.426C79.4964 153.449 79.7676 152.257 79.5916 151.088C79.4066 149.92 78.9594 148.808 78.2838 147.837C78.0423 147.435 77.7237 147.084 77.3463 146.805C76.8354 146.46 76.2026 146.362 75.5932 146.275C73.0479 145.919 70.4112 145.529 67.8448 145.398C67.0339 145.356 66.4386 145.515 66.0378 146.275C65.4261 147.408 66.38 148.259 66.4105 149.397Z" fill="#444176"/>
<path opacity="0.5" d="M79.5184 157.374L74.688 164.249L69.9724 163.839C69.9724 163.839 69.8177 165.481 67.9217 159.53C66.8623 156.201 69.0162 157.358 69.4404 156.436C69.8646 155.514 70.6123 154.7 70.6756 154.02C70.8256 152.561 70.3826 151.731 70.3826 151.731L75.5083 151.116C75.277 151.807 75.2478 152.55 75.4239 153.258C76.0661 155.927 79.5184 157.374 79.5184 157.374Z" fill="#C77485"/>
<path opacity="0.5" d="M72.2529 151.513C75.6183 151.513 78.3466 149.361 78.3466 146.705C78.3466 144.049 75.6183 141.896 72.2529 141.896C68.8874 141.896 66.1592 144.049 66.1592 146.705C66.1592 149.361 68.8874 151.513 72.2529 151.513Z" fill="#444176"/>
<path opacity="0.1" d="M75.4212 153.255C74.7527 153.762 73.9702 154.097 73.1423 154.23C72.3144 154.363 71.4664 154.291 70.6728 154.02C70.8228 152.561 70.3799 151.731 70.3799 151.731L75.5056 151.116C75.2748 151.807 75.2455 152.549 75.4212 153.255Z" fill="black"/>
<path opacity="0.5" d="M72.3298 154.091C75.1607 154.091 77.4556 151.794 77.4556 148.961C77.4556 146.128 75.1607 143.831 72.3298 143.831C69.499 143.831 67.2041 146.128 67.2041 148.961C67.2041 151.794 69.499 154.091 72.3298 154.091Z" fill="#C77485"/>
<path opacity="0.1" d="M79.0126 158.153L78.893 157.684L78.7899 157.271L78.6376 156.662L78.6095 156.549L78.586 156.455C78.586 156.455 78.7079 156.087 77.904 156.207L77.754 156.232C77.6274 156.258 77.4798 156.293 77.311 156.34L77.1587 156.387L76.9571 156.45C76.319 156.658 75.7369 157.01 75.2556 157.478C75.0395 157.685 74.8484 157.916 74.686 158.167C74.6696 158.191 74.6579 158.212 74.6439 158.231C74.5884 158.318 74.539 158.409 74.4962 158.503C74.4962 160.351 72.6494 162.608 72.6494 162.608L70.847 160.002L70.8119 159.95L70.383 159.326L70.2306 159.124L70.1791 159.054L69.2416 157.794L69.0072 157.48L68.9298 157.375L68.815 157.222L68.5455 156.863L67.4908 157.48L66.0846 158.301L65.2643 163.637V163.785L65.29 164.226L65.4611 167.125V167.165L65.1611 168.366L65.2057 168.389C65.9135 168.772 66.6501 169.098 67.4088 169.365L67.608 169.436C67.8424 169.513 68.0627 169.583 68.2924 169.651C68.3009 169.686 68.3071 169.721 68.3111 169.757C68.3111 169.724 68.3111 169.689 68.3111 169.656C71.1871 170.479 74.2358 170.479 77.1118 169.656L77.1657 169.64C77.2993 169.602 77.4352 169.562 77.5665 169.518L77.7798 169.45C78.3581 169.256 78.9247 169.029 79.4766 168.769L79.6735 164.571L79.8141 161.543V161.369L79.0126 158.153Z" fill="black"/>
<path opacity="0.5" d="M77.3243 165.953C77.3243 165.859 77.3243 165.765 77.3079 165.671C77.2915 165.577 77.2938 165.495 77.2821 165.406C77.2704 165.317 77.261 165.228 77.2493 165.139C77.2376 165.049 77.2212 164.96 77.2048 164.871C77.1884 164.782 77.172 164.693 77.1532 164.604C77.1532 164.573 77.1415 164.545 77.1345 164.515C77.1087 164.397 77.0806 164.28 77.0501 164.16C77.0196 164.041 77.0009 163.97 76.9727 163.877C76.9727 163.834 76.9493 163.792 76.9352 163.752C76.9212 163.712 76.8954 163.616 76.8743 163.548L76.8321 163.417C76.8134 163.358 76.7946 163.3 76.7735 163.241C76.7384 163.135 76.7009 163.032 76.6634 162.927C76.6259 162.821 76.586 162.718 76.5462 162.615C76.4665 162.404 76.3798 162.195 76.2931 161.986C75.9532 161.175 75.5712 160.375 75.2196 159.582C75.0307 159.166 74.8633 158.741 74.7181 158.308L74.6735 158.372C74.6023 158.48 74.5389 158.592 74.4837 158.709C74.4837 160.555 72.6368 162.814 72.6368 162.814L70.7783 160.105L69.1517 162.608C68.9174 162.732 68.683 163.159 68.5002 163.766C68.4486 163.931 68.3994 164.109 68.3525 164.299C68.3197 164.426 68.2892 164.559 68.2611 164.693C68.2447 164.761 68.2306 164.829 68.2166 164.899L68.1744 165.113V165.146C68.1463 165.291 68.1181 165.441 68.0924 165.594C68.0666 165.746 68.0361 165.922 68.0103 166.089C67.9916 166.196 67.9752 166.304 67.9611 166.412C67.9283 166.621 67.9002 166.832 67.872 167.041C67.8556 167.163 67.8392 167.275 67.8252 167.404L67.7689 167.874C67.8885 168.258 68.022 168.638 68.1603 169.011C68.2487 169.215 68.3002 169.434 68.3127 169.656C71.1887 170.479 74.2374 170.479 77.1134 169.656C77.1123 169.648 77.1123 169.641 77.1134 169.633C77.0701 169.422 77.0512 169.207 77.0571 168.992C77.1044 168.391 77.1827 167.792 77.2915 167.198C77.3261 166.905 77.341 166.611 77.336 166.316V166.211C77.329 166.121 77.3267 166.037 77.3243 165.953ZM77.3243 165.953C77.3243 165.859 77.3243 165.765 77.3079 165.671C77.2915 165.577 77.2938 165.495 77.2821 165.406C77.2704 165.317 77.261 165.228 77.2493 165.139C77.2376 165.049 77.2212 164.96 77.2048 164.871C77.1884 164.782 77.172 164.693 77.1532 164.604C77.1532 164.573 77.1415 164.545 77.1345 164.515C77.1087 164.397 77.0806 164.28 77.0501 164.16C77.0196 164.041 77.0009 163.97 76.9727 163.877C76.9727 163.834 76.9493 163.792 76.9352 163.752C76.9212 163.712 76.8954 163.616 76.8743 163.548L76.8321 163.417C76.8134 163.358 76.7946 163.3 76.7735 163.241C76.7384 163.135 76.7009 163.032 76.6634 162.927C76.6259 162.821 76.586 162.718 76.5462 162.615C76.4665 162.404 76.3798 162.195 76.2931 161.986C75.9532 161.175 75.5712 160.375 75.2196 159.582C75.0307 159.166 74.8633 158.741 74.7181 158.308L74.6735 158.372C74.6023 158.48 74.5389 158.592 74.4837 158.709C74.4837 160.555 72.6368 162.814 72.6368 162.814L70.7783 160.105L69.1517 162.608C68.9174 162.732 68.683 163.159 68.5002 163.766C68.4486 163.931 68.3994 164.109 68.3525 164.299C68.3197 164.426 68.2892 164.559 68.2611 164.693C68.2447 164.761 68.2306 164.829 68.2166 164.899L68.1744 165.113V165.146C68.1463 165.291 68.1181 165.441 68.0924 165.594C68.0666 165.746 68.0361 165.922 68.0103 166.089C67.9916 166.196 67.9752 166.304 67.9611 166.412C67.9283 166.621 67.9002 166.832 67.872 167.041C67.8556 167.163 67.8392 167.275 67.8252 167.404L67.7689 167.874C67.8885 168.258 68.022 168.638 68.1603 169.011C68.2487 169.215 68.3002 169.434 68.3127 169.656C71.1887 170.479 74.2374 170.479 77.1134 169.656C77.1123 169.648 77.1123 169.641 77.1134 169.633C77.0701 169.422 77.0512 169.207 77.0571 168.992C77.1044 168.391 77.1827 167.792 77.2915 167.198C77.3261 166.905 77.341 166.611 77.336 166.316V166.211C77.329 166.121 77.3267 166.037 77.3243 165.953ZM77.3243 165.953C77.3243 165.859 77.3243 165.765 77.3079 165.671C77.2915 165.577 77.2938 165.495 77.2821 165.406C77.2704 165.317 77.261 165.228 77.2493 165.139C77.2376 165.049 77.2212 164.96 77.2048 164.871C77.1884 164.782 77.172 164.693 77.1532 164.604C77.1532 164.573 77.1415 164.545 77.1345 164.515C77.1087 164.397 77.0806 164.28 77.0501 164.16C77.0196 164.041 77.0009 163.97 76.9727 163.877C76.9727 163.834 76.9493 163.792 76.9352 163.752C76.9212 163.712 76.8954 163.616 76.8743 163.548L76.8321 163.417C76.8134 163.358 76.7946 163.3 76.7735 163.241C76.7384 163.135 76.7009 163.032 76.6634 162.927C76.6259 162.821 76.586 162.718 76.5462 162.615C76.4665 162.404 76.3798 162.195 76.2931 161.986C75.9532 161.175 75.5712 160.375 75.2196 159.582C75.0307 159.166 74.8633 158.741 74.7181 158.308L74.6735 158.372C74.6023 158.48 74.5389 158.592 74.4837 158.709C74.4837 160.555 72.6368 162.814 72.6368 162.814L70.7783 160.105L69.1517 162.608C68.9174 162.732 68.683 163.159 68.5002 163.766C68.4486 163.931 68.3994 164.109 68.3525 164.299C68.3197 164.426 68.2892 164.559 68.2611 164.693C68.2447 164.761 68.2306 164.829 68.2166 164.899L68.1744 165.113V165.146C68.1463 165.291 68.1181 165.441 68.0924 165.594C68.0666 165.746 68.0361 165.922 68.0103 166.089C67.9916 166.196 67.9752 166.304 67.9611 166.412C67.9283 166.621 67.9002 166.832 67.872 167.041C67.8556 167.163 67.8392 167.275 67.8252 167.404L67.7689 167.874C67.8885 168.258 68.022 168.638 68.1603 169.011C68.2487 169.215 68.3002 169.434 68.3127 169.656C71.1887 170.479 74.2374 170.479 77.1134 169.656C77.1123 169.648 77.1123 169.641 77.1134 169.633C77.0701 169.422 77.0512 169.207 77.0571 168.992C77.1044 168.391 77.1827 167.792 77.2915 167.198C77.3261 166.905 77.341 166.611 77.336 166.316V166.211C77.329 166.121 77.3267 166.037 77.3243 165.953ZM79.8087 161.55L78.9719 158.207L78.829 157.635L78.7891 157.478L78.5852 156.662C78.5857 156.655 78.5857 156.648 78.5852 156.641C78.5901 156.605 78.5844 156.568 78.5688 156.535C78.5384 156.474 78.461 156.411 78.2806 156.394C78.2119 156.389 78.143 156.389 78.0743 156.394C77.8707 156.414 77.6691 156.452 77.472 156.507C77.3759 156.533 77.2727 156.561 77.1626 156.596L76.961 156.659H76.9423C76.4025 156.837 75.9013 157.115 75.4657 157.48C75.178 157.72 74.9255 158 74.7157 158.311L74.6712 158.374C74.5999 158.482 74.5365 158.595 74.4814 158.712C74.4814 160.558 72.6345 162.816 72.6345 162.816L70.7759 160.107L70.6705 159.955L70.6517 159.929L70.3822 159.533L70.1783 159.261L70.1244 159.19L69.1634 157.907L68.8588 157.492V157.478L68.7533 157.335L68.5517 157.067L67.8486 157.478L66.0908 158.503L65.2799 163.783V163.839L65.3033 164.224L65.4768 167.163V167.329L65.2119 168.387C65.9198 168.769 66.6564 169.096 67.415 169.363L67.6142 169.433C67.8486 169.511 68.0689 169.581 68.2986 169.649C68.3071 169.684 68.3134 169.719 68.3174 169.755C68.3174 169.722 68.3174 169.687 68.3174 169.654C71.1934 170.476 74.2421 170.476 77.1181 169.654L77.172 169.637C77.3056 169.6 77.4415 169.56 77.5727 169.515L77.786 169.447C78.3644 169.254 78.9309 169.027 79.4829 168.767L79.6774 164.573L79.818 161.578L79.8087 161.55ZM68.2822 169.649C68.2907 169.684 68.297 169.719 68.3009 169.755C68.3009 169.722 68.3009 169.687 68.3009 169.654L68.2822 169.649ZM77.3243 165.953C77.3243 165.859 77.3243 165.765 77.3079 165.671C77.2915 165.577 77.2938 165.495 77.2821 165.406C77.2704 165.317 77.261 165.228 77.2493 165.139C77.2376 165.049 77.2212 164.96 77.2048 164.871C77.1884 164.782 77.172 164.693 77.1532 164.604C77.1532 164.573 77.1415 164.545 77.1345 164.515C77.1087 164.397 77.0806 164.28 77.0501 164.16C77.0196 164.041 77.0009 163.97 76.9727 163.877C76.9727 163.834 76.9493 163.792 76.9352 163.752C76.9212 163.712 76.8954 163.616 76.8743 163.548L76.8321 163.417C76.8134 163.358 76.7946 163.3 76.7735 163.241C76.7384 163.135 76.7009 163.032 76.6634 162.927C76.6259 162.821 76.586 162.718 76.5462 162.615C76.4665 162.404 76.3798 162.195 76.2931 161.986C75.9532 161.175 75.5712 160.375 75.2196 159.582C75.0307 159.166 74.8633 158.741 74.7181 158.308L74.6735 158.372C74.6023 158.48 74.5389 158.592 74.4837 158.709C74.4837 160.555 72.6368 162.814 72.6368 162.814L70.7783 160.105L69.1517 162.608C68.9174 162.732 68.683 163.159 68.5002 163.766C68.4486 163.931 68.3994 164.109 68.3525 164.299C68.3197 164.426 68.2892 164.559 68.2611 164.693C68.2447 164.761 68.2306 164.829 68.2166 164.899L68.1744 165.113V165.146C68.1463 165.291 68.1181 165.441 68.0924 165.594C68.0666 165.746 68.0361 165.922 68.0103 166.089C67.9916 166.196 67.9752 166.304 67.9611 166.412C67.9283 166.621 67.9002 166.832 67.872 167.041C67.8556 167.163 67.8392 167.275 67.8252 167.404L67.7689 167.874C67.8885 168.258 68.022 168.638 68.1603 169.011C68.2487 169.215 68.3002 169.434 68.3127 169.656C71.1887 170.479 74.2374 170.479 77.1134 169.656C77.1123 169.648 77.1123 169.641 77.1134 169.633C77.0701 169.422 77.0512 169.207 77.0571 168.992C77.1044 168.391 77.1827 167.792 77.2915 167.198C77.3261 166.905 77.341 166.611 77.336 166.316V166.211C77.329 166.121 77.3267 166.037 77.3243 165.953ZM77.3243 165.953C77.3243 165.859 77.3243 165.765 77.3079 165.671C77.2915 165.577 77.2938 165.495 77.2821 165.406C77.2704 165.317 77.261 165.228 77.2493 165.139C77.2376 165.049 77.2212 164.96 77.2048 164.871C77.1884 164.782 77.172 164.693 77.1532 164.604C77.1532 164.573 77.1415 164.545 77.1345 164.515C77.1087 164.397 77.0806 164.28 77.0501 164.16C77.0196 164.041 77.0009 163.97 76.9727 163.877C76.9727 163.834 76.9493 163.792 76.9352 163.752C76.9212 163.712 76.8954 163.616 76.8743 163.548L76.8321 163.417C76.8134 163.358 76.7946 163.3 76.7735 163.241C76.7384 163.135 76.7009 163.032 76.6634 162.927C76.6259 162.821 76.586 162.718 76.5462 162.615C76.4665 162.404 76.3798 162.195 76.2931 161.986C75.9532 161.175 75.5712 160.375 75.2196 159.582C75.0307 159.166 74.8633 158.741 74.7181 158.308L74.6735 158.372C74.6023 158.48 74.5389 158.592 74.4837 158.709C74.4837 160.555 72.6368 162.814 72.6368 162.814L70.7783 160.105L69.1517 162.608C68.9174 162.732 68.683 163.159 68.5002 163.766C68.4486 163.931 68.3994 164.109 68.3525 164.299C68.3197 164.426 68.2892 164.559 68.2611 164.693C68.2447 164.761 68.2306 164.829 68.2166 164.899L68.1744 165.113V165.146C68.1463 165.291 68.1181 165.441 68.0924 165.594C68.0666 165.746 68.0361 165.922 68.0103 166.089C67.9916 166.196 67.9752 166.304 67.9611 166.412C67.9283 166.621 67.9002 166.832 67.872 167.041C67.8556 167.163 67.8392 167.275 67.8252 167.404L67.7689 167.874C67.8885 168.258 68.022 168.638 68.1603 169.011C68.2487 169.215 68.3002 169.434 68.3127 169.656C71.1887 170.479 74.2374 170.479 77.1134 169.656C77.1123 169.648 77.1123 169.641 77.1134 169.633C77.0701 169.422 77.0512 169.207 77.0571 168.992C77.1044 168.391 77.1827 167.792 77.2915 167.198C77.3261 166.905 77.341 166.611 77.336 166.316V166.211C77.329 166.121 77.3267 166.037 77.3243 165.953ZM77.3243 165.953C77.3243 165.859 77.3243 165.765 77.3079 165.671C77.2915 165.577 77.2938 165.495 77.2821 165.406C77.2704 165.317 77.261 165.228 77.2493 165.139C77.2376 165.049 77.2212 164.96 77.2048 164.871C77.1884 164.782 77.172 164.693 77.1532 164.604C77.1532 164.573 77.1415 164.545 77.1345 164.515C77.1087 164.397 77.0806 164.28 77.0501 164.16C77.0196 164.041 77.0009 163.97 76.9727 163.877C76.9727 163.834 76.9493 163.792 76.9352 163.752C76.9212 163.712 76.8954 163.616 76.8743 163.548L76.8321 163.417C76.8134 163.358 76.7946 163.3 76.7735 163.241C76.7384 163.135 76.7009 163.032 76.6634 162.927C76.6259 162.821 76.586 162.718 76.5462 162.615C76.4665 162.404 76.3798 162.195 76.2931 161.986C75.9532 161.175 75.5712 160.375 75.2196 159.582C75.0307 159.166 74.8633 158.741 74.7181 158.308L74.6735 158.372C74.6023 158.48 74.5389 158.592 74.4837 158.709C74.4837 160.555 72.6368 162.814 72.6368 162.814L70.7783 160.105L69.1517 162.608C68.9174 162.732 68.683 163.159 68.5002 163.766C68.4486 163.931 68.3994 164.109 68.3525 164.299C68.3197 164.426 68.2892 164.559 68.2611 164.693C68.2447 164.761 68.2306 164.829 68.2166 164.899L68.1744 165.113V165.146C68.1463 165.291 68.1181 165.441 68.0924 165.594C68.0666 165.746 68.0361 165.922 68.0103 166.089C67.9916 166.196 67.9752 166.304 67.9611 166.412C67.9283 166.621 67.9002 166.832 67.872 167.041C67.8556 167.163 67.8392 167.275 67.8252 167.404L67.7689 167.874C67.8885 168.258 68.022 168.638 68.1603 169.011C68.2487 169.215 68.3002 169.434 68.3127 169.656C71.1887 170.479 74.2374 170.479 77.1134 169.656C77.1123 169.648 77.1123 169.641 77.1134 169.633C77.0701 169.422 77.0512 169.207 77.0571 168.992C77.1044 168.391 77.1827 167.792 77.2915 167.198C77.3261 166.905 77.341 166.611 77.336 166.316V166.211C77.329 166.121 77.3267 166.037 77.3243 165.953ZM77.3243 165.953C77.3243 165.859 77.3243 165.765 77.3079 165.671C77.2915 165.577 77.2938 165.495 77.2821 165.406C77.2704 165.317 77.261 165.228 77.2493 165.139C77.2376 165.049 77.2212 164.96 77.2048 164.871C77.1884 164.782 77.172 164.693 77.1532 164.604C77.1532 164.573 77.1415 164.545 77.1345 164.515C77.1087 164.397 77.0806 164.28 77.0501 164.16C77.0196 164.041 77.0009 163.97 76.9727 163.877C76.9727 163.834 76.9493 163.792 76.9352 163.752C76.9212 163.712 76.8954 163.616 76.8743 163.548L76.8321 163.417C76.8134 163.358 76.7946 163.3 76.7735 163.241C76.7384 163.135 76.7009 163.032 76.6634 162.927C76.6259 162.821 76.586 162.718 76.5462 162.615C76.4665 162.404 76.3798 162.195 76.2931 161.986C75.9532 161.175 75.5712 160.375 75.2196 159.582C75.0307 159.166 74.8633 158.741 74.7181 158.308L74.6735 158.372C74.6023 158.48 74.5389 158.592 74.4837 158.709C74.4837 160.555 72.6368 162.814 72.6368 162.814L70.7783 160.105L69.1517 162.608C68.9174 162.732 68.683 163.159 68.5002 163.766C68.4486 163.931 68.3994 164.109 68.3525 164.299C68.3197 164.426 68.2892 164.559 68.2611 164.693C68.2447 164.761 68.2306 164.829 68.2166 164.899L68.1744 165.113V165.146C68.1463 165.291 68.1181 165.441 68.0924 165.594C68.0666 165.746 68.0361 165.922 68.0103 166.089C67.9916 166.196 67.9752 166.304 67.9611 166.412C67.9283 166.621 67.9002 166.832 67.872 167.041C67.8556 167.163 67.8392 167.275 67.8252 167.404L67.7689 167.874C67.8885 168.258 68.022 168.638 68.1603 169.011C68.2487 169.215 68.3002 169.434 68.3127 169.656C71.1887 170.479 74.2374 170.479 77.1134 169.656C77.1123 169.648 77.1123 169.641 77.1134 169.633C77.0701 169.422 77.0512 169.207 77.0571 168.992C77.1044 168.391 77.1827 167.792 77.2915 167.198C77.3261 166.905 77.341 166.611 77.336 166.316V166.211C77.329 166.121 77.3267 166.037 77.3243 165.953ZM77.3243 165.953C77.3243 165.859 77.3243 165.765 77.3079 165.671C77.2915 165.577 77.2938 165.495 77.2821 165.406C77.2704 165.317 77.261 165.228 77.2493 165.139C77.2376 165.049 77.2212 164.96 77.2048 164.871C77.1884 164.782 77.172 164.693 77.1532 164.604C77.1532 164.573 77.1415 164.545 77.1345 164.515C77.1087 164.397 77.0806 164.28 77.0501 164.16C77.0196 164.041 77.0009 163.97 76.9727 163.877C76.9727 163.834 76.9493 163.792 76.9352 163.752C76.9212 163.712 76.8954 163.616 76.8743 163.548L76.8321 163.417C76.8134 163.358 76.7946 163.3 76.7735 163.241C76.7384 163.135 76.7009 163.032 76.6634 162.927C76.6259 162.821 76.586 162.718 76.5462 162.615C76.4665 162.404 76.3798 162.195 76.2931 161.986C75.9532 161.175 75.5712 160.375 75.2196 159.582C75.0307 159.166 74.8633 158.741 74.7181 158.308L74.6735 158.372C74.6023 158.48 74.5389 158.592 74.4837 158.709C74.4837 160.555 72.6368 162.814 72.6368 162.814L70.7783 160.105L69.1517 162.608C68.9174 162.732 68.683 163.159 68.5002 163.766C68.4486 163.931 68.3994 164.109 68.3525 164.299C68.3197 164.426 68.2892 164.559 68.2611 164.693C68.2447 164.761 68.2306 164.829 68.2166 164.899L68.1744 165.113V165.146C68.1463 165.291 68.1181 165.441 68.0924 165.594C68.0666 165.746 68.0361 165.922 68.0103 166.089C67.9916 166.196 67.9752 166.304 67.9611 166.412C67.9283 166.621 67.9002 166.832 67.872 167.041C67.8556 167.163 67.8392 167.275 67.8252 167.404L67.7689 167.874C67.8885 168.258 68.022 168.638 68.1603 169.011C68.2487 169.215 68.3002 169.434 68.3127 169.656C71.1887 170.479 74.2374 170.479 77.1134 169.656C77.1123 169.648 77.1123 169.641 77.1134 169.633C77.0701 169.422 77.0512 169.207 77.0571 168.992C77.1044 168.391 77.1827 167.792 77.2915 167.198C77.3261 166.905 77.341 166.611 77.336 166.316V166.211C77.329 166.121 77.3267 166.037 77.3243 165.953ZM77.3243 165.953C77.3243 165.859 77.3243 165.765 77.3079 165.671C77.2915 165.577 77.2938 165.495 77.2821 165.406C77.2704 165.317 77.261 165.228 77.2493 165.139C77.2376 165.049 77.2212 164.96 77.2048 164.871C77.1884 164.782 77.172 164.693 77.1532 164.604C77.1532 164.573 77.1415 164.545 77.1345 164.515C77.1087 164.397 77.0806 164.28 77.0501 164.16C77.0196 164.041 77.0009 163.97 76.9727 163.877C76.9727 163.834 76.9493 163.792 76.9352 163.752C76.9212 163.712 76.8954 163.616 76.8743 163.548L76.8321 163.417C76.8134 163.358 76.7946 163.3 76.7735 163.241C76.7384 163.135 76.7009 163.032 76.6634 162.927C76.6259 162.821 76.586 162.718 76.5462 162.615C76.4665 162.404 76.3798 162.195 76.2931 161.986C75.9532 161.175 75.5712 160.375 75.2196 159.582C75.0307 159.166 74.8633 158.741 74.7181 158.308L74.6735 158.372C74.6023 158.48 74.5389 158.592 74.4837 158.709C74.4837 160.555 72.6368 162.814 72.6368 162.814L70.7783 160.105L69.1517 162.608C68.9174 162.732 68.683 163.159 68.5002 163.766C68.4486 163.931 68.3994 164.109 68.3525 164.299C68.3197 164.426 68.2892 164.559 68.2611 164.693C68.2447 164.761 68.2306 164.829 68.2166 164.899L68.1744 165.113V165.146C68.1463 165.291 68.1181 165.441 68.0924 165.594C68.0666 165.746 68.0361 165.922 68.0103 166.089C67.9916 166.196 67.9752 166.304 67.9611 166.412C67.9283 166.621 67.9002 166.832 67.872 167.041C67.8556 167.163 67.8392 167.275 67.8252 167.404L67.7689 167.874C67.8885 168.258 68.022 168.638 68.1603 169.011C68.2487 169.215 68.3002 169.434 68.3127 169.656C71.1887 170.479 74.2374 170.479 77.1134 169.656C77.1123 169.648 77.1123 169.641 77.1134 169.633C77.0701 169.422 77.0512 169.207 77.0571 168.992C77.1044 168.391 77.1827 167.792 77.2915 167.198C77.3261 166.905 77.341 166.611 77.336 166.316V166.211C77.329 166.121 77.3267 166.037 77.3243 165.953ZM77.3243 165.953C77.3243 165.859 77.3243 165.765 77.3079 165.671C77.2915 165.577 77.2938 165.495 77.2821 165.406C77.2704 165.317 77.261 165.228 77.2493 165.139C77.2376 165.049 77.2212 164.96 77.2048 164.871C77.1884 164.782 77.172 164.693 77.1532 164.604C77.1532 164.573 77.1415 164.545 77.1345 164.515C77.1087 164.397 77.0806 164.28 77.0501 164.16C77.0196 164.041 77.0009 163.97 76.9727 163.877C76.9727 163.834 76.9493 163.792 76.9352 163.752C76.9212 163.712 76.8954 163.616 76.8743 163.548L76.8321 163.417C76.8134 163.358 76.7946 163.3 76.7735 163.241C76.7384 163.135 76.7009 163.032 76.6634 162.927C76.6259 162.821 76.586 162.718 76.5462 162.615C76.4665 162.404 76.3798 162.195 76.2931 161.986C75.9532 161.175 75.5712 160.375 75.2196 159.582C75.0307 159.166 74.8633 158.741 74.7181 158.308L74.6735 158.372C74.6023 158.48 74.5389 158.592 74.4837 158.709C74.4837 160.555 72.6368 162.814 72.6368 162.814L70.7783 160.105L69.1517 162.608C68.9174 162.732 68.683 163.159 68.5002 163.766C68.4486 163.931 68.3994 164.109 68.3525 164.299C68.3197 164.426 68.2892 164.559 68.2611 164.693C68.2447 164.761 68.2306 164.829 68.2166 164.899L68.1744 165.113V165.146C68.1463 165.291 68.1181 165.441 68.0924 165.594C68.0666 165.746 68.0361 165.922 68.0103 166.089C67.9916 166.196 67.9752 166.304 67.9611 166.412C67.9283 166.621 67.9002 166.832 67.872 167.041C67.8556 167.163 67.8392 167.275 67.8252 167.404L67.7689 167.874C67.8885 168.258 68.022 168.638 68.1603 169.011C68.2487 169.215 68.3002 169.434 68.3127 169.656C71.1887 170.479 74.2374 170.479 77.1134 169.656C77.1123 169.648 77.1123 169.641 77.1134 169.633C77.0701 169.422 77.0512 169.207 77.0571 168.992C77.1044 168.391 77.1827 167.792 77.2915 167.198C77.3261 166.905 77.341 166.611 77.336 166.316V166.211C77.329 166.121 77.3267 166.037 77.3243 165.953ZM77.3243 165.953C77.3243 165.859 77.3243 165.765 77.3079 165.671C77.2915 165.577 77.2938 165.495 77.2821 165.406C77.2704 165.317 77.261 165.228 77.2493 165.139C77.2376 165.049 77.2212 164.96 77.2048 164.871C77.1884 164.782 77.172 164.693 77.1532 164.604C77.1532 164.573 77.1415 164.545 77.1345 164.515C77.1087 164.397 77.0806 164.28 77.0501 164.16C77.0196 164.041 77.0009 163.97 76.9727 163.877C76.9727 163.834 76.9493 163.792 76.9352 163.752C76.9212 163.712 76.8954 163.616 76.8743 163.548L76.8321 163.417C76.8134 163.358 76.7946 163.3 76.7735 163.241C76.7384 163.135 76.7009 163.032 76.6634 162.927C76.6259 162.821 76.586 162.718 76.5462 162.615C76.4665 162.404 76.3798 162.195 76.2931 161.986C75.9532 161.175 75.5712 160.375 75.2196 159.582C75.0307 159.166 74.8633 158.741 74.7181 158.308L74.6735 158.372C74.6023 158.48 74.5389 158.592 74.4837 158.709C74.4837 160.555 72.6368 162.814 72.6368 162.814L70.7783 160.105L69.1517 162.608C68.9174 162.732 68.683 163.159 68.5002 163.766C68.4486 163.931 68.3994 164.109 68.3525 164.299C68.3197 164.426 68.2892 164.559 68.2611 164.693C68.2447 164.761 68.2306 164.829 68.2166 164.899L68.1744 165.113V165.146C68.1463 165.291 68.1181 165.441 68.0924 165.594C68.0666 165.746 68.0361 165.922 68.0103 166.089C67.9916 166.196 67.9752 166.304 67.9611 166.412C67.9283 166.621 67.9002 166.832 67.872 167.041C67.8556 167.163 67.8392 167.275 67.8252 167.404L67.7689 167.874C67.8885 168.258 68.022 168.638 68.1603 169.011C68.2487 169.215 68.3002 169.434 68.3127 169.656C71.1887 170.479 74.2374 170.479 77.1134 169.656C77.1123 169.648 77.1123 169.641 77.1134 169.633C77.0701 169.422 77.0512 169.207 77.0571 168.992C77.1044 168.391 77.1827 167.792 77.2915 167.198C77.3261 166.905 77.341 166.611 77.336 166.316V166.211C77.329 166.121 77.3267 166.037 77.3243 165.953Z" fill="#444176"/>
<path opacity="0.1" d="M70.8118 159.947L70.6548 159.926C70.4177 159.894 70.1829 159.847 69.9517 159.786L69.865 159.762C69.2931 159.6 68.6673 159.309 68.5267 158.798C68.4848 158.634 68.4897 158.46 68.5408 158.299C68.6194 158.019 68.7262 157.749 68.8595 157.492V157.478C68.8771 157.441 68.8967 157.406 68.9181 157.372C69.1115 156.994 69.4039 156.675 69.7642 156.45L69.4829 156.495L67.1017 156.882L63.4103 157.478C63.4103 157.478 62.7541 157.346 61.8611 159.809C61.8611 159.84 61.84 159.868 61.8307 159.901C61.615 160.503 61.3877 161.256 61.1533 162.197C60.9916 162.849 60.8439 163.489 60.708 164.111C60.6682 164.299 60.6283 164.484 60.5908 164.667C61.0134 165.165 61.4683 165.635 61.9525 166.074L62.0299 166.147C62.9784 167.006 64.0265 167.749 65.1517 168.359L65.1962 168.382C65.9041 168.764 66.6407 169.091 67.3994 169.358L67.5986 169.428C67.6408 168.994 67.6876 168.514 67.7439 168.021C67.7439 167.972 67.7439 167.922 67.7626 167.873L67.8189 167.404C67.8329 167.284 67.8494 167.17 67.8658 167.041C67.8939 166.832 67.922 166.621 67.9548 166.412C67.9689 166.304 67.9853 166.196 68.004 166.088C68.0298 165.922 68.0579 165.755 68.0861 165.593C68.1142 165.431 68.14 165.291 68.1681 165.145V165.112L68.2103 164.899C68.2244 164.829 68.2384 164.761 68.2548 164.693C68.2829 164.559 68.3134 164.425 68.3462 164.299C68.3931 164.109 68.4423 163.93 68.4939 163.766C68.6814 163.159 68.8993 162.732 69.1454 162.607L70.772 160.105L70.84 159.999L70.8704 159.952L70.8118 159.947Z" fill="black"/>
<path opacity="0.1" d="M71.2031 147.46C71.9344 147.335 72.6703 147.068 73.3968 147.225C74.0062 147.352 74.5148 147.757 75.0726 148.039C75.6112 148.31 76.2002 148.466 76.8023 148.496C77.0219 148.525 77.2449 148.482 77.4374 148.372C77.7281 148.17 77.7703 147.757 77.721 147.406C77.5804 146.406 76.957 145.548 76.3148 144.769C76.0585 144.437 75.7625 144.136 75.4335 143.876C74.5921 143.254 73.4789 143.148 72.4359 143.195C71.2453 143.249 70.0359 143.479 69.0023 144.077C68.2992 144.481 66.6867 145.752 67.2469 146.671C67.8352 147.633 70.282 147.617 71.2031 147.46Z" fill="black"/>
<path opacity="0.5" d="M71.2031 147.225C71.9344 147.101 72.6703 146.834 73.3968 146.991C74.0062 147.117 74.5148 147.523 75.0726 147.805C75.6112 148.076 76.2002 148.231 76.8023 148.262C77.0219 148.291 77.2449 148.247 77.4374 148.138C77.7281 147.936 77.7703 147.523 77.721 147.171C77.5804 146.172 76.957 145.314 76.3148 144.535C76.0585 144.202 75.7625 143.902 75.4335 143.641C74.5921 143.02 73.4789 142.914 72.4359 142.961C71.2453 143.015 70.0359 143.245 69.0023 143.843C68.2992 144.246 66.6867 145.518 67.2469 146.437C67.8352 147.399 70.282 147.382 71.2031 147.225Z" fill="#444176"/>
</g>
<path d="M135.563 135.739H135.598C135.65 137.311 135.873 138.732 136.302 139.126C137.323 140.064 141.561 138.188 141.27 137.053C141.212 136.818 141.113 136.433 140.989 135.948C142.133 135.805 143.11 135.479 143.499 134.808L144.235 137.078L144.287 137.24H144.301H144.343C144.828 141.842 145.927 151.398 146.806 152.679C147.978 154.375 149.326 161.724 149.326 161.724L151.845 176.799C151.845 176.799 152.815 185.477 153.397 186.415C153.566 186.595 153.79 186.711 154.034 186.746C153.694 187.764 153.207 188.953 152.628 189.617C151.456 190.935 149.914 193.574 148.557 193.387C147.2 193.199 146.813 196.025 149.333 196.401C150.727 196.609 152.951 196.356 154.66 196.089C154.66 196.844 155.185 197.712 156.504 197.909C159.024 198.286 164.258 197.156 164.258 197.156C164.258 197.156 168.711 195.279 168.91 193.952C169.05 192.99 168.368 189.129 167.989 187.105C168.692 185.977 167.942 176.24 167.942 176.24L166.585 157.586C166.585 157.586 167.361 147.223 166.585 145.337C166.1 144.164 165.919 138.77 165.851 134.911L166.789 134.972C166.842 134.908 166.891 134.84 166.934 134.768L167.168 134.785C167.168 134.785 168.34 133.466 167.363 131.393C166.643 129.852 166.779 122.895 166.894 119.43L167.033 117.788C167.084 117.739 167.123 117.678 167.147 117.61C168.965 117.364 170.732 116.829 172.381 116.025C172.878 115.818 173.341 115.536 173.754 115.19C174.725 114.251 174.141 108.594 172.203 100.114C170.265 91.6352 168.521 92.3881 168.521 92.3881C168.521 92.3881 163.868 92.0105 161.736 89.184C159.603 86.3576 158.171 86.3951 158.171 86.3951C158.117 86.0245 158.079 85.675 158.054 85.349C158.054 85.227 158.035 85.1145 158.028 84.9925C158.753 84.3176 159.306 83.4787 159.64 82.546C160.076 82.3115 160.613 82.2341 161.03 81.9385C161.137 81.8612 161.233 81.7714 161.319 81.6711C161.737 81.2851 162.002 80.7614 162.066 80.1958C162.133 79.5781 162.103 78.9538 161.979 78.3451C161.832 77.4444 161.614 76.5226 161.089 75.8142C160.564 75.1058 159.779 74.679 159.022 74.2825C156.972 73.2051 154.916 72.1387 152.855 71.0832C152.453 70.837 152.003 70.6772 151.536 70.6141C150.711 70.5671 149.97 71.1324 149.305 71.6696C149.039 71.8787 148.785 72.1019 148.543 72.3381C148.337 72.5205 148.15 72.7224 147.983 72.9409C147.205 73.9847 146.874 75.9503 147.216 77.2544C147.324 77.6672 147.556 77.7869 147.842 77.7822C147.418 78.6263 147.197 79.5581 147.198 80.503C147.202 81.5376 147.467 82.5543 147.967 83.4597C148.467 84.3652 149.186 85.1302 150.059 85.6844C150.059 85.8158 150.059 85.9448 150.071 86.0691C150.081 86.5504 150.065 87.0319 150.024 87.5116C150.024 87.5116 144.868 90.3005 144.289 91.6188C143.71 92.937 141.575 93.8799 141.575 93.8799C141.575 93.8799 137.504 95.9534 137.504 103.302L135.371 113.665L134.984 133.45C134.984 133.45 135.252 133.215 135.687 132.882C135.673 133.014 135.662 133.15 135.65 133.288C135.592 134.044 135.572 134.803 135.591 135.561L135.563 135.739ZM161.602 186.946C161.522 187.248 161.405 187.649 161.258 188.118C161.192 187.729 161.126 187.344 161.061 186.978C161.229 186.962 161.41 186.953 161.602 186.946Z" fill="url(#paint2_linear)"/>
<path d="M154.562 184.516C154.562 184.516 153.814 187.879 152.687 189.186C151.559 190.492 150.083 193.11 148.78 192.922C147.477 192.735 147.099 195.538 149.527 195.911C151.956 196.283 156.983 195.165 156.983 195.165C156.983 195.165 161.277 193.288 161.462 191.989C161.647 190.689 160.341 183.955 160.341 183.955L154.562 184.516Z" fill="#53526B"/>
<path opacity="0.05" d="M154.562 184.516C154.562 184.516 153.814 187.879 152.687 189.186C151.559 190.492 150.083 193.11 148.78 192.922C147.477 192.735 147.099 195.538 149.527 195.911C151.956 196.283 156.983 195.165 156.983 195.165C156.983 195.165 161.277 193.288 161.462 191.989C161.647 190.689 160.341 183.955 160.341 183.955L154.562 184.516Z" fill="black"/>
<path d="M161.469 186.009C161.469 186.009 160.721 189.373 159.594 190.679C158.467 191.986 156.983 194.603 155.682 194.416C154.381 194.228 154.002 197.031 156.43 197.404C158.858 197.777 163.897 196.656 163.897 196.656C163.897 196.656 168.191 194.779 168.376 193.48C168.561 192.18 167.256 185.446 167.256 185.446L161.469 186.009Z" fill="#53526B"/>
<path d="M144.481 134.827C144.481 134.827 145.974 150.892 147.095 152.574C148.215 154.256 149.52 161.541 149.52 161.541L151.946 176.485C151.946 176.485 152.884 185.079 153.439 186.012C153.995 186.946 160.923 186.545 160.923 186.545L156.615 137.067L144.481 134.827Z" fill="#5F5D7E"/>
<path opacity="0.05" d="M144.481 134.827C144.481 134.827 145.974 150.892 147.095 152.574C148.215 154.256 149.52 161.541 149.52 161.541L151.946 176.485C151.946 176.485 152.884 185.079 153.439 186.012C153.995 186.946 160.923 186.545 160.923 186.545L156.615 137.067L144.481 134.827Z" fill="black"/>
<path d="M141.496 127.164L141.984 128.714L144.62 137.091L144.672 137.25H144.686C145.04 137.33 152.512 139.049 154.124 139.577C154.211 139.604 154.296 139.636 154.38 139.673C155.127 140.046 156.06 153.496 156.06 153.496C156.06 153.496 156.62 166.199 156.998 167.133C157.375 168.066 158.872 187.305 159.798 186.747C160.724 186.188 167.451 186.747 167.451 186.747C168.198 185.998 167.451 175.912 167.451 175.912L166.124 157.422C166.124 157.422 166.872 147.148 166.124 145.279C165.376 143.41 165.376 130.896 165.376 130.896L150.098 128.506L148.621 128.271L141.496 127.164Z" fill="#5F5D7E"/>
<path opacity="0.02" d="M141.983 128.716L144.62 137.092L144.683 137.257C145.037 137.336 152.509 139.056 154.122 139.583H154.283L150.109 128.507L149.99 128.188L148.633 128.275L141.983 128.716Z" fill="black"/>
<path opacity="0.1" d="M159.415 89.8057C159.415 89.8057 152.508 97.2787 148.214 91.1121L144.108 93.9151L144.856 98.2122L142.428 130.715C142.428 130.715 148.775 130.527 153.253 132.021C154.501 132.464 155.849 132.541 157.138 132.243C158.428 131.945 159.606 131.285 160.533 130.34L159.795 101.761L161.475 92.9816L159.415 89.8057Z" fill="black"/>
<path d="M159.415 89.2441C159.415 89.2441 152.508 96.7172 148.214 90.5506L144.108 93.3536L144.856 97.6507L142.428 130.153C142.428 130.153 148.775 129.966 153.253 131.46C154.501 131.903 155.849 131.98 157.138 131.682C158.428 131.384 159.606 130.723 160.533 129.778L159.795 101.2L161.475 92.4201L159.415 89.2441Z" fill="#53526B"/>
<path d="M145.628 122.523V123.701H145.253V122.917H143.882V123.701H143.505V122.526L145.628 122.523Z" fill="#E82127"/>
<path d="M145.292 122.144H143.844C143.749 122.121 143.662 122.073 143.593 122.005C143.523 121.936 143.474 121.85 143.45 121.755H145.684C145.66 121.849 145.61 121.936 145.541 122.004C145.472 122.073 145.385 122.121 145.29 122.144" fill="#E82127"/>
<path d="M158.389 121.77C158.365 121.863 158.315 121.948 158.247 122.017C158.178 122.085 158.092 122.133 157.998 122.157H157.389L157.358 122.168V123.707H156.983V122.168L156.948 122.157H156.339C156.245 122.132 156.16 122.084 156.091 122.016C156.022 121.948 155.973 121.863 155.947 121.77H158.389Z" fill="#E82127"/>
<path d="M145.042 127.914C145.042 127.914 145.042 132.772 143.922 134.826C142.802 136.881 136.27 135.765 136.27 135.765L137.575 128.852L145.042 127.914Z" fill="#D6DBE6"/>
<path d="M136.98 139.126C137.964 140.064 142.044 138.188 141.763 137.071C141.566 136.281 140.877 133.452 140.486 131.847L140.214 130.719C140.214 130.719 137.823 129.971 136.98 130.719C136.673 130.991 136.457 132.063 136.356 133.358C136.183 135.607 136.359 138.53 136.98 139.126Z" fill="#FDC2CC"/>
<path d="M145.968 92.6061L152.5 97.6491C152.5 97.6491 162.205 97.0885 159.779 92.4185C158.723 90.3645 158.086 88.1208 157.904 85.818C157.825 84.9684 157.825 84.1133 157.904 83.2636C157.904 83.2636 148.944 75.0541 150.065 84.3848C150.153 85.101 150.205 85.8213 150.219 86.5428C150.353 93.5467 145.968 92.6061 145.968 92.6061Z" fill="#FDC2CC"/>
<path opacity="0.1" d="M150.083 84.387C150.172 85.1032 150.223 85.8235 150.238 86.545C151.243 87.2114 152.423 87.5656 153.629 87.5629C155.3 87.5629 156.531 85.9351 157.642 84.8538C157.518 83.3034 157.921 83.2658 157.921 83.2658C157.921 83.2658 148.963 75.0469 150.083 84.387Z" fill="black"/>
<path d="M153.629 87.1897C157.031 87.1897 159.788 84.4299 159.788 81.0255C159.788 77.6211 157.031 74.8613 153.629 74.8613C150.227 74.8613 147.47 77.6211 147.47 81.0255C147.47 84.4299 150.227 87.1897 153.629 87.1897Z" fill="#FDC2CC"/>
<path opacity="0.1" d="M158.014 86.9092C158.014 86.9092 159.041 87.003 161.094 89.8036C163.147 92.6043 167.626 92.9795 167.626 92.9795C167.626 92.9795 169.307 92.2313 171.172 100.638C173.038 109.044 173.598 114.648 172.665 115.582C171.732 116.515 167.999 117.826 166.124 117.826C166.124 117.826 165.564 129.594 166.496 131.649C167.429 133.704 166.309 135.012 166.309 135.012L158.106 134.452C158.106 134.452 155.305 130.903 154.745 124.739C154.185 118.575 152.319 101.013 153.252 98.9584C154.185 96.9037 158.291 91.6731 158.106 91.1125C157.921 90.5519 158.014 86.9092 158.014 86.9092Z" fill="black"/>
<path d="M158.036 86.8516C158.036 86.8516 159.416 86.8141 161.469 89.617C163.522 92.42 167.999 92.7929 167.999 92.7929C167.999 92.7929 169.679 92.0447 171.545 100.451C173.411 108.858 173.971 114.461 173.038 115.395C172.105 116.329 168.372 117.637 166.506 117.637C166.506 117.637 165.946 129.405 166.879 131.46C167.811 133.515 166.691 134.823 166.691 134.823L158.488 134.263C158.488 134.263 155.687 130.714 155.127 124.55C154.567 118.386 152.697 100.827 153.629 98.7812C154.562 96.7359 158.669 91.4958 158.483 90.9352C158.298 90.3746 158.036 86.8516 158.036 86.8516Z" fill="#D6DBE6"/>
<path opacity="0.1" d="M136.358 133.356C137.251 132.674 138.936 131.611 140.488 131.846L140.216 130.717C140.216 130.717 137.826 129.969 136.982 130.717C136.67 130.989 136.457 132.059 136.358 133.356Z" fill="black"/>
<path opacity="0.1" d="M150.187 88.0303C150.187 88.0303 145.426 91.1124 144.866 92.4212C144.306 93.73 142.253 94.6636 142.253 94.6636C142.253 94.6636 138.334 96.7183 138.334 104.004L136.281 114.277L145.614 127.354C145.614 127.354 146.734 114.277 147.294 111.101C147.855 107.926 148.6 101.954 148.6 101.954C148.6 101.954 151.401 98.4048 151.026 97.4713C150.651 96.5377 150.187 88.0303 150.187 88.0303Z" fill="black"/>
<path d="M150.187 87.9736C150.187 87.9736 145.223 90.7391 144.665 92.0456C144.107 93.352 142.051 94.2879 142.051 94.2879C142.051 94.2879 138.133 96.3427 138.133 103.628L136.08 113.902L135.707 133.515C135.707 133.515 139.068 130.339 141.494 131.834C143.919 133.328 145.412 126.976 145.412 126.976C145.412 126.976 146.533 113.899 147.093 110.723C147.653 107.547 148.398 101.576 148.398 101.576C148.398 101.576 151.199 98.0268 150.824 97.0932C150.449 96.1597 150.187 87.9736 150.187 87.9736Z" fill="#D6DBE6"/>
<path opacity="0.1" d="M148.222 73.5275C148.538 73.1251 148.903 72.7642 149.31 72.4532C149.952 71.9184 150.662 71.3602 151.459 71.4071C151.91 71.4671 152.343 71.6222 152.729 71.8621C154.713 72.9082 156.692 73.9653 158.666 75.0333C159.395 75.4274 160.147 75.8449 160.655 76.5533C161.164 77.2616 161.37 78.1717 161.513 79.063C161.633 79.6668 161.661 80.2851 161.598 80.8973C161.54 81.4975 161.248 82.0508 160.787 82.4383C160.255 82.8253 159.526 82.8277 159.08 83.3343C158.823 83.6275 158.71 84.038 158.527 84.3945C158.345 84.7511 158.028 85.0982 157.667 85.0349C157.306 84.9715 157.088 84.5892 157.037 84.2022C157.014 83.81 157.037 83.4164 157.105 83.0294C157.175 82.3257 157.086 81.5798 156.678 81.0568C156.397 80.7002 155.994 80.4845 155.722 80.1185C155.07 79.2366 155.368 77.773 154.653 76.945C154.446 76.7285 154.184 76.5711 153.896 76.4887C153.608 76.4063 153.303 76.4018 153.013 76.4759C152.434 76.5978 151.904 76.9121 151.372 77.1795C150.653 77.5424 149.9 77.8331 149.124 78.0474C148.473 78.2257 147.718 78.6526 147.496 77.7847C147.156 76.511 147.472 74.5619 148.222 73.5275Z" fill="black"/>
<path d="M148.41 73.3419C148.726 72.9396 149.091 72.5786 149.497 72.2676C150.139 71.7328 150.849 71.1746 151.646 71.2215C152.097 71.2816 152.53 71.4367 152.917 71.6766C154.899 72.7227 156.547 71.7328 158.853 74.8478C159.345 75.5139 160.335 75.6594 160.843 76.3677C161.352 77.0761 161.558 77.9862 161.701 78.8775C161.821 79.4812 161.849 80.0995 161.785 80.7117C161.727 81.3119 161.436 81.8653 160.974 82.2528C160.442 82.6398 159.713 82.6421 159.268 83.1488C159.01 83.442 158.898 83.8525 158.715 84.209C158.532 84.5655 158.216 84.9127 157.855 84.8493C157.494 84.786 157.276 84.4037 157.224 84.0166C157.201 83.6244 157.224 83.2308 157.292 82.8439C157.363 82.1402 157.274 81.3943 156.866 80.8712C156.585 80.5147 156.181 80.2989 155.91 79.933C155.258 79.0511 155.556 77.5874 154.841 76.7594C154.633 76.543 154.372 76.3856 154.084 76.3031C153.796 76.2207 153.491 76.2163 153.2 76.2903C152.621 76.4123 152.092 76.7266 151.56 76.994C150.841 77.3569 150.088 77.6476 149.312 77.8619C148.66 78.0401 147.906 78.467 147.683 77.5991C147.341 76.3255 147.66 74.374 148.41 73.3419Z" fill="#865A61"/>
<path opacity="0.1" d="M165.233 101.852C165.233 101.852 167.722 108.203 165.854 110.819L161.748 109.88C161.748 109.88 165.482 111.002 164.921 108.759C164.361 106.517 165.233 101.852 165.233 101.852Z" fill="black"/>
<path opacity="0.1" d="M166.593 117.546C166.593 117.546 161.179 117.919 159.686 116.798C161.652 118.3 163.973 119.266 166.424 119.601L166.593 117.546Z" fill="black"/>
<path opacity="0.1" d="M143.27 105.584C143.27 105.584 140.469 114.178 140.656 115.485C140.844 116.791 141.217 131.177 141.217 131.177L141.777 130.989L141.589 115.297L143.27 105.584Z" fill="black"/>
<path d="M167.251 116.087L103.267 64.484C102.895 64.1115 102.452 63.8161 101.966 63.6149C101.479 63.4136 100.958 63.3104 100.431 63.3112H97.7124C103.145 56.3434 105.718 47.564 104.906 38.7632C104.094 29.9623 99.9587 21.8028 93.3427 15.9484C86.7267 10.0939 78.1286 6.98539 69.3015 7.2566C60.4744 7.52781 52.083 11.1583 45.8384 17.4079C39.5937 23.6575 35.9661 32.0555 35.6951 40.8896C35.4241 49.7237 38.5302 58.3286 44.38 64.9498C50.2298 71.571 58.3829 75.7099 67.1767 76.5225C75.9706 77.3351 84.7431 74.7602 91.7054 69.3229V72.0415C91.7046 72.5684 91.8077 73.0904 92.0088 73.5774C92.2099 74.0644 92.505 74.5069 92.8773 74.8796L156.861 126.482C157.231 126.856 157.672 127.153 158.158 127.355C158.643 127.558 159.164 127.662 159.69 127.662C160.216 127.662 160.737 127.558 161.222 127.355C161.708 127.153 162.148 126.856 162.519 126.482L167.234 121.768C167.987 121.015 168.411 119.995 168.414 118.931C168.417 117.866 167.999 116.844 167.251 116.087ZM70.3446 63.3112C66.1199 63.3112 61.99 62.0574 58.4772 59.7084C54.9645 57.3594 52.2266 54.0207 50.6099 50.1144C48.9931 46.2082 48.5701 41.9099 49.3943 37.763C50.2185 33.6161 52.253 29.807 55.2403 26.8173C58.2277 23.8276 62.0338 21.7916 66.1774 20.9667C70.3209 20.1418 74.6159 20.5652 78.519 22.1832C82.4222 23.8012 85.7583 26.5413 88.1055 30.0568C90.4526 33.5723 91.7054 37.7055 91.7054 41.9336C91.7076 44.7418 91.1565 47.5228 90.0839 50.1177C89.0112 52.7126 87.438 55.0704 85.4541 57.0563C83.4702 59.0422 81.1146 60.6173 78.5219 61.6913C75.9293 62.7654 73.1506 63.3174 70.3446 63.3159V63.3112Z" fill="url(#paint3_linear)"/>
<path d="M167.72 115.618L103.736 64.0153C103.363 63.6427 102.921 63.3474 102.435 63.1461C101.948 62.9449 101.426 62.8417 100.9 62.8425H98.1811C103.614 55.8746 106.187 47.0952 105.375 38.2944C104.563 29.4936 100.427 21.3341 93.8114 15.4796C87.1955 9.62518 78.5974 6.51664 69.7703 6.78785C60.9432 7.05906 52.5518 10.6896 46.3071 16.9392C40.0625 23.1888 36.4348 31.5868 36.1638 40.4209C35.8928 49.255 38.9989 57.8599 44.8487 64.4811C50.6986 71.1022 58.8516 75.2411 67.6455 76.0537C76.4393 76.8663 85.2118 74.2915 92.1741 68.8542V71.5727C92.1734 72.0997 92.2765 72.6216 92.4776 73.1086C92.6786 73.5956 92.9738 74.0382 93.346 74.4109L157.33 126.014C157.7 126.387 158.141 126.684 158.626 126.887C159.112 127.089 159.633 127.193 160.159 127.193C160.685 127.193 161.205 127.089 161.691 126.887C162.176 126.684 162.617 126.387 162.988 126.014L167.703 121.299C168.456 120.547 168.88 119.527 168.883 118.462C168.886 117.397 168.468 116.375 167.72 115.618ZM70.8134 62.8425C66.5886 62.8425 62.4587 61.5887 58.946 59.2397C55.4332 56.8907 52.6954 53.5519 51.0786 49.6457C49.4619 45.7394 49.0389 41.4411 49.8631 37.2943C50.6873 33.1474 52.7217 29.3383 55.7091 26.3486C58.6964 23.3588 62.5025 21.3228 66.6461 20.498C70.7897 19.6731 75.0846 20.0964 78.9878 21.7145C82.891 23.3325 86.2271 26.0725 88.5742 29.588C90.9213 33.1036 92.1741 37.2367 92.1741 41.4648C92.1763 44.273 91.6253 47.0541 90.5526 49.649C89.48 52.2439 87.9067 54.6017 85.9228 56.5876C83.9389 58.5735 81.5833 60.1485 78.9907 61.2226C76.3981 62.2966 73.6193 62.8487 70.8134 62.8471V62.8425Z" fill="#006DCC"/>
<path d="M162.962 110.914C162.962 110.914 153.623 100.195 154.935 107.55C155.873 112.781 159.414 115.584 161.094 116.145C162.775 116.705 162.962 110.914 162.962 110.914Z" fill="#FDC2CC"/>
<path d="M165.202 101.013C165.202 101.013 165.39 107.925 166.323 108.859C167.255 109.792 165.762 110.913 165.762 110.913L162.029 109.975C162.029 109.975 162.966 116.139 159.043 115.393C159.043 115.393 161.656 117.821 164.269 118.196C166.883 118.572 166.695 117.636 166.695 117.636L170.614 112.966L165.202 101.013Z" fill="#D6DBE6"/>
<path d="M166.236 117.736L170.024 116.904L169.518 115.156L167.174 114.218L164.127 115.625L166.236 117.736Z" fill="#D6DBE6"/>
<path d="M73.1502 50.3247L78.1916 46.4334C78.1916 46.4334 74.8143 47.1582 74.9104 41.7563C74.9092 41.7383 74.9092 41.7203 74.9104 41.7023C74.9104 41.2145 74.9572 40.6797 75.0275 40.0909C75.8924 32.8829 68.9784 39.2254 68.9784 39.2254C69.0379 39.8636 69.0379 40.5059 68.9784 41.1441C68.9784 41.1605 68.9784 41.1793 68.9784 41.1957C68.8416 42.972 68.3524 44.7031 67.5393 46.288C65.662 49.8908 73.1502 50.3247 73.1502 50.3247Z" fill="#FDC2CC"/>
<path opacity="0.1" d="M69.6229 40.1425C70.4783 40.9752 71.001 42.4881 72.2877 42.4881C73.2186 42.4901 74.1294 42.2168 74.9056 41.7023C74.9056 41.2145 74.9525 40.6797 75.0228 40.0909C75.8876 32.8829 68.9736 39.2254 68.9736 39.2254C68.9736 39.2254 69.7143 38.9697 69.6229 40.1425Z" fill="black"/>
<path d="M72.2873 42.2529C74.9123 42.2529 77.0403 40.1232 77.0403 37.4961C77.0403 34.869 74.9123 32.7393 72.2873 32.7393C69.6622 32.7393 67.5342 34.869 67.5342 37.4961C67.5342 40.1232 69.6622 42.2529 72.2873 42.2529Z" fill="#FDC2CC"/>
<path opacity="0.1" d="M76.8465 31.405C76.5739 31.0602 76.259 30.7513 75.909 30.4855C75.3606 30.0281 74.7512 29.5473 74.0692 29.5895C73.6833 29.6409 73.3126 29.7736 72.9817 29.9789C71.2825 30.8749 69.8739 30.0281 67.8981 32.6927C67.4763 33.2627 66.6302 33.3964 66.1943 33.9945C65.7583 34.5926 65.5825 35.3784 65.4583 36.1431C65.3556 36.6603 65.3312 37.1901 65.3857 37.7146C65.4378 38.2294 65.6904 38.703 66.0888 39.0328C66.5435 39.3635 67.1692 39.3659 67.5513 39.7998C67.7434 40.0825 67.9008 40.3873 68.02 40.7076C68.1747 41.0125 68.4466 41.301 68.756 41.2564C69.0653 41.2119 69.2505 40.8764 69.295 40.5528C69.3144 40.2178 69.2947 39.8816 69.2364 39.5512C69.1778 38.9578 69.2528 38.3104 69.602 37.8624C69.8364 37.5551 70.188 37.3721 70.42 37.0602C70.9778 36.3073 70.7247 35.043 71.3364 34.344C71.5153 34.1602 71.7397 34.0271 71.9867 33.9583C72.2337 33.8894 72.4946 33.8874 72.7426 33.9523C73.2353 34.093 73.7079 34.2964 74.1489 34.5575C74.7642 34.8683 75.4087 35.1174 76.0731 35.301C76.6309 35.4535 77.2778 35.8194 77.4676 35.0664C77.7653 33.9593 77.4863 32.2893 76.8465 31.405Z" fill="black"/>
<path d="M76.8465 31.1706C76.5739 30.8258 76.259 30.5169 75.909 30.2511C75.3606 29.7938 74.7512 29.3129 74.0692 29.3551C73.6833 29.4065 73.3126 29.5392 72.9817 29.7445C71.2825 30.6405 69.8739 29.7938 67.8981 32.4583C67.4763 33.0283 66.6302 33.162 66.1943 33.7601C65.7583 34.3583 65.5825 35.144 65.4583 35.9087C65.3556 36.4259 65.3312 36.9557 65.3857 37.4802C65.4378 37.9951 65.6904 38.4686 66.0888 38.7984C66.5435 39.1292 67.1692 39.1315 67.5513 39.5654C67.7434 39.8481 67.9008 40.1529 68.02 40.4732C68.1747 40.7781 68.4466 41.0666 68.756 41.0221C69.0653 40.9775 69.2505 40.6421 69.295 40.3184C69.3144 39.9834 69.2947 39.6473 69.2364 39.3168C69.1778 38.7234 69.2528 38.076 69.602 37.628C69.8364 37.3207 70.188 37.1378 70.42 36.8258C70.9778 36.0729 70.7247 34.8086 71.3364 34.1096C71.5153 33.9258 71.7397 33.7927 71.9867 33.7239C72.2337 33.6551 72.4946 33.653 72.7426 33.7179C73.2353 33.8586 73.7079 34.062 74.1489 34.3231C74.7642 34.6339 75.4087 34.883 76.0731 35.0666C76.6309 35.2191 77.2778 35.585 77.4676 34.8321C77.7653 33.725 77.4863 32.0549 76.8465 31.1706Z" fill="#865A61"/>
<path opacity="0.1" d="M67.5342 52.8273L67.4404 56.4278C68.8025 56.7983 70.2078 56.9852 71.6193 56.9837C71.8536 56.9837 72.0997 56.9837 72.3388 56.9673C73.5905 56.9133 74.8313 56.7102 76.0349 56.3621H76.0583C76.2809 56.2965 76.5013 56.2284 76.7192 56.1534H76.7427L76.9419 56.083C77.7005 55.8156 78.4371 55.4894 79.145 55.1072L79.1895 55.0838C79.2668 55.0416 79.3442 54.9993 79.4239 54.9548L79.0606 50.1018L79.6395 46.7734L76.4708 44.6131C76.2929 44.8702 76.0938 45.1118 75.8755 45.3355C75.5627 45.6625 75.1965 45.9338 74.7927 46.1377C72.5193 47.2589 69.9318 45.4763 68.6451 44.3738L68.3521 44.1135C68.0193 43.8109 67.8295 43.6045 67.8295 43.6045L66.2451 46.0533L67.5342 52.8273Z" fill="black"/>
<path d="M67.5342 53.0617L67.4404 56.6622C68.8025 57.0326 70.2078 57.2196 71.6193 57.2181C71.8536 57.2181 72.0997 57.2181 72.3388 57.2017C73.5905 57.1477 74.8313 56.9445 76.0349 56.5965H76.0583C76.2809 56.5308 76.5013 56.4628 76.7192 56.3877H76.7427L76.9419 56.3174C77.7005 56.05 78.4371 55.7237 79.145 55.3416L79.1895 55.3182C79.2668 55.2759 79.3442 55.2337 79.4239 55.1891L79.0606 50.3361L79.6395 47.0078L76.4708 44.8475C76.2929 45.1045 76.0938 45.3462 75.8755 45.5699C75.5627 45.8969 75.1965 46.1682 74.7927 46.3721C72.5193 47.4933 69.9318 45.7106 68.6451 44.6082L68.3521 44.3479C68.0193 44.0453 67.8295 43.8389 67.8295 43.8389L66.2451 46.2877L67.5342 53.0617Z" fill="#53526B"/>
<path d="M76.3188 53.3502C76.3188 53.3502 76.4922 54.7317 76.7196 56.383H76.743L76.9422 56.3127C77.7008 56.0453 78.4374 55.719 79.1453 55.3369L79.1898 55.3134C79.2672 55.2712 79.3445 55.229 79.4242 55.1844C80.4632 54.6008 81.4334 53.9021 82.3164 53.1016L82.3937 53.0288C82.878 52.5901 83.3329 52.12 83.7554 51.6215L83.8046 51.5629C82.9679 48.6567 81.2265 47.7419 81.2265 47.7419C81.2265 47.7419 79.6422 47.0195 79.2086 46.0109C78.775 45.0023 74.9477 42.8701 74.9477 42.8701V42.8865C74.9477 43.0671 74.8868 44.7208 74.7954 46.3838C74.7368 47.4651 74.6641 48.5511 74.5797 49.2407C74.5615 49.4648 74.5206 49.6864 74.4579 49.9022C74.1602 50.6129 76.3188 53.3502 76.3188 53.3502Z" fill="#555388"/>
</g>
<defs>
<linearGradient id="paint0_linear" x1="120.534" y1="186.38" x2="120.534" y2="9.21582" gradientUnits="userSpaceOnUse">
<stop stop-color="#808080" stop-opacity="0.25"/>
<stop offset="0.54" stop-color="#808080" stop-opacity="0.12"/>
<stop offset="1" stop-color="#808080" stop-opacity="0.1"/>
</linearGradient>
<linearGradient id="paint1_linear" x1="8766.33" y1="14530.9" x2="8766.33" y2="11095.5" gradientUnits="userSpaceOnUse">
<stop stop-color="#808080" stop-opacity="0.25"/>
<stop offset="0.54" stop-color="#808080" stop-opacity="0.12"/>
<stop offset="1" stop-color="#808080" stop-opacity="0.1"/>
</linearGradient>
<linearGradient id="paint2_linear" x1="-40982.2" y1="110632" x2="-40982.2" y2="41467.4" gradientUnits="userSpaceOnUse">
<stop stop-color="#808080" stop-opacity="0.25"/>
<stop offset="0.54" stop-color="#808080" stop-opacity="0.12"/>
<stop offset="1" stop-color="#808080" stop-opacity="0.1"/>
</linearGradient>
<linearGradient id="paint3_linear" x1="63550.9" y1="68424.8" x2="63550.9" y2="6578.65" gradientUnits="userSpaceOnUse">
<stop stop-color="#808080" stop-opacity="0.25"/>
<stop offset="0.54" stop-color="#808080" stop-opacity="0.12"/>
<stop offset="1" stop-color="#808080" stop-opacity="0.1"/>
</linearGradient>
<clipPath id="clip0">
<rect width="261" height="198" fill="white"/>
</clipPath>
</defs>
</svg>
